<?xml version="1.0" encoding="utf-8"?>
<!-- Generator: Adobe Illustrator 23.0.3, SVG Export Plug-In . SVG Version: 6.00 Build 0)  -->
<svg version="1.1" id="Слой_1" xmlns="http://www.w3.org/2000/svg" xmlns:xlink="http://www.w3.org/1999/xlink" x="0px" y="0px"
	 viewBox="0 0 526 768" style="enable-background:new 0 0 526 768;" xml:space="preserve">
<style type="text/css">
	.st0{fill:#F3F7FF;}
	.st1{fill:#E3F5FF;}
	.st2{fill:#FFFFFF;}
	.st3{fill:#A4E6FF;}
	.st4{fill:#6FD4FF;}
	.st5{fill:#A2E8FE;}
	.st6{fill:#73D4FD;}
	.st7{fill:#232323;}
	.st8{fill:none;}
	.st9{fill:#CF2F57;}
	.st10{fill:#FF7600;}
	.st11{fill:#00A1E9;}
	.st12{fill:#024DC2;}
	.st13{fill:#EF3D57;}
	.st14{fill:#0338AF;}
	.st15{fill:#CBEEFF;}
	.st16{fill:#004DC3;}
	.st17{fill:#1C469D;}
	.st18{fill:#A5E6FF;}
	.st19{fill:#11B6EF;stroke:#2E6FCE;stroke-miterlimit:10;}
	.st20{fill:#2169DA;}
	.st21{fill:none;stroke:#B2C5D3;stroke-miterlimit:10;}
	.st22{fill:#FF9D90;}
	.st23{fill:#FECE2F;}
	.st24{fill:#2159B7;}
	.st25{fill:#E57053;}
	.st26{fill:none;stroke:#1E1E1E;stroke-width:0.75;stroke-miterlimit:10;}
	.st27{fill:#FFFFFF;stroke:#1E1E1E;stroke-width:0.75;stroke-miterlimit:10;}
	.st28{fill:#E64153;}
	.st29{fill:#FFCBB2;}
	.st30{fill:#E09C82;}
	.st31{fill:#FFC9B1;}
	.st32{fill:#161616;}
	.st33{fill:#1212D8;}
	.st34{fill:#1B1B1C;}
	.st35{fill:#1E1E1E;}
	.st36{fill:#FFB0A3;}
	.st37{fill:none;stroke:#E09C82;stroke-miterlimit:10;}
	.st38{fill:#00BEFD;}
	.st39{fill:#37B1E7;}
	.st40{fill:#00BEFD;stroke:#333333;stroke-width:0.75;stroke-miterlimit:10;}
	.st41{fill:#EDCC29;stroke:#333333;stroke-width:0.75;stroke-miterlimit:10;}
	.st42{fill:#F73C3C;stroke:#FFFFFF;stroke-miterlimit:10;}
	.st43{fill:#004DC0;}
	.st44{fill:none;stroke:#7FD3F4;stroke-miterlimit:10;}
	.st45{fill:#ECA99B;}
	.st46{fill:#FFBD9B;}
	.st47{fill:none;stroke:#ECA99B;stroke-miterlimit:10;}
	.st48{fill:#01BCFF;stroke:#5151CE;stroke-width:0.5;stroke-miterlimit:10;}
</style>
<path class="st0" d="M35.26,21.5v134.49h18.99c7.7-11.21,18.62-19.99,33.9-19.99l5.29-5.45c1.76-9.09-1.76-9.09-1.76-9.09
	c-1.69-0.69-3.21-1.49-4.57-2.34c-2.71-1.69-4.78-3.62-6.33-5.6c-4.76-6-5.06-12.58-5.02-14.85l-0.19-0.38
	c-1.11,1.89-5.92,8.61-12.09-4.09c-5.85-12.07-0.78-14.12,1.11-14.45c-10.89-29.37,9.47-34.62,9.47-34.62
	c1.76-5.45,8.81-7.27,8.81-7.27c54.65-1.82,40.55,10.9,40.55,10.9c14.1-3.63,17.63,7.27,17.63,9.09c0,1.74-6.47,5.16-7.02,5.43
	c0.72-0.18,13.66-3.36-0.02,5.45c0.78,1,1.57,2.42,1.92,4.25c2.08,0.38,3.74,2.2,3.88,4.47l0.44,7.92l0.23,4.22
	c0.14,2.64-1.83,4.94-4.41,5.09l-0.32,0.02v3.13c2.38,15.88-7.21,22.74-13.75,25.52c-3.19,1.36-5.64,1.74-5.64,1.74l1.76,5.45
	l3.53,5.45c0,0,20.89-1.07,34.53,19.99h17.42c0.56-7.03,0.93-12.72,0.93-12.72h1.76c0,0-8.81-9.09-5.29-12.72
	c2.13-2.2,2.98-1.74,3.31-1.04c-0.48-2.36-1.6-8.23-1.94-12.96c-0.19-2.64-0.14-4.89,0.39-6c1.76-3.63,1.76-18.17,5.29-16.36
	c2.96,1.53,2.33,17.08,2.06,21.95c-0.02,0.15-0.02,0.29-0.02,0.42c0,0.07-0.02,0.16-0.02,0.24c0,0.05,0,0.11-0.02,0.15v0.35
	c0.05-0.22,0.11-0.56,0.19-0.96c0.02-0.15,0.05-0.29,0.09-0.44c0.04-0.15,0.05-0.29,0.09-0.45c0.04-0.09,0.05-0.2,0.07-0.31
	c0.05-0.18,0.11-0.36,0.14-0.56c0.02-0.02,0.02-0.04,0.04-0.07c0.02-0.07,0.04-0.13,0.05-0.2c0.02-0.05,0.04-0.11,0.04-0.15
	c0.07-0.2,0.12-0.42,0.19-0.62c0.07-0.24,0.14-0.47,0.23-0.69c0,0,0,0,0-0.02c0.02-0.02,0.02-0.04,0.04-0.05
	c0.02-0.05,0.04-0.09,0.05-0.15c0.05-0.15,0.11-0.29,0.16-0.42l0.02-0.02c0-0.02,0-0.04,0-0.04c0.05-0.09,0.09-0.16,0.12-0.25
	c0.3-0.65,0.65-1.24,1.06-1.6c0.05-0.07,0.12-0.15,0.19-0.18c0.07-0.05,0.14-0.09,0.21-0.13c0.02-0.02,0.04-0.02,0.04-0.04
	c0.05-0.02,0.11-0.05,0.16-0.07c0.02,0,0.02,0,0.02,0s0.02-0.02,0.04-0.02c0.05-0.02,0.11-0.04,0.18-0.04
	c0.07-0.04,0.14-0.04,0.21-0.04c0.05,0,0.11,0.02,0.18,0.02h0.09v0.02c0.02,0,0.02,0,0.02,0h0.02c0.02,0,0.04,0.02,0.05,0.02
	c0.02,0.02,0.04,0.02,0.05,0.02c0.04,0,0.05,0,0.09,0.02c0,0,0,0,0.02,0.02c0.02,0,0.02,0,0.02,0c0.05,0.04,0.11,0.05,0.16,0.07
	v0.02c0.02,0,0.05,0.02,0.07,0.04c0.02,0,0.02,0,0.02,0c0.11,0.05,0.19,0.11,0.28,0.18c0.12,0.11,0.25,0.22,0.37,0.35
	c0.32,0.33,0.6,0.67,0.83,1c0.02-0.04,0.04-0.05,0.05-0.09c0,0,0.04,0.11,0.09,0.29c0.65,0.95,0.99,1.87,1.15,2.69
	c0.09,0.16,0.18,0.31,0.3,0.45c0.48-0.93,1.34-1.49,2.87-0.71c0.63,0.33,1.09,0.76,1.41,1.27c1.13,1.69,0.79,4.09,0.55,5.27
	c0.51-1.74,1.92-5.82,3.33-2.91c1.76,3.63,1.76,9.09,1.76,9.09s0-5.45,1.76-3.63s5.29,3.63,1.76,14.54c0,0-1.76,3.63-3.53,3.63v1.82
	h1.76v12.72h59.94V21.5H35.26z"/>
<path class="st1" d="M498.57,510.38c-53.74,65.43-44.78,112.68-17.91,154.48s0,78.15,0,78.15H0v-7.27h23.39
	c0-17.01-9.72-31.53-23.39-37.29V197.78c0,0,0.25-0.16,0.75-0.47c2-1.24,8.05-4.96,17.17-10.49c3.54-2.13,7.54-4.53,11.94-7.16
	v19.94h16.08c6.52-11.21,15.76-19.99,28.71-19.99l4.48-5.45c1.49-9.09-1.49-9.09-1.49-9.09c-1.43-0.69-2.72-1.49-3.87-2.34
	c-2.3-1.69-4.05-3.62-5.36-5.6c10.33-5.92,21.47-12.21,33.15-18.7c5.61-3.11,11.36-6.25,17.2-9.43l0.19,4.22
	c0.12,2.64-1.55,4.94-3.73,5.09l-0.27,0.02v3.13c2.02,15.88-6.11,22.74-11.64,25.52c-2.7,1.36-4.78,1.74-4.78,1.74l1.49,5.45
	l2.99,5.45c0,0,17.69-1.07,29.24,19.99h14.75c0.48-7.03,0.79-12.72,0.79-12.72h1.49c0,0-7.46-9.09-4.48-12.72
	c1.81-2.2,2.52-1.74,2.81-1.04c-0.4-2.36-1.36-8.23-1.64-12.96c-0.16-2.64-0.12-4.89,0.33-6c1.49-3.63,1.49-18.17,4.48-16.36
	c1.84,1.13,2.05,9.72,1.93,16.17c0,0.29,0,0.58-0.01,0.87c-0.01,1.14-0.06,2.2-0.09,3.11c-0.01,0.22-0.01,0.44-0.03,0.65v0.13
	c-0.01,0.36-0.03,0.69-0.04,0.98c0,0.02,0,0.04,0,0.04c-0.01,0.15-0.01,0.29-0.01,0.42c-0.01,0.04-0.01,0.05-0.01,0.09v0.15
	c0,0.02-0.01,0.05-0.01,0.07v0.2c-0.01,0.15-0.01,0.25-0.01,0.35c0.01-0.04,0.01-0.07,0.01-0.13c0.04-0.31,0.12-0.8,0.24-1.4
	c0-0.05,0.01-0.11,0.03-0.16c0.01-0.09,0.03-0.18,0.04-0.29c0.03-0.09,0.04-0.2,0.06-0.31c0.03-0.05,0.03-0.13,0.04-0.2
	c0.03-0.11,0.06-0.24,0.07-0.35c0,0,0.01-0.02,0-0.04c0.03-0.13,0.06-0.25,0.1-0.38c0.1-0.44,0.22-0.89,0.36-1.33
	c0.01-0.04,0.01-0.05,0.03-0.07c0.01-0.05,0.03-0.11,0.04-0.16c0.01-0.04,0.03-0.09,0.04-0.13c0.03-0.09,0.06-0.18,0.09-0.27
	l0.01-0.02c0.03-0.11,0.07-0.2,0.1-0.29c0.04-0.09,0.07-0.2,0.12-0.29c0.04-0.09,0.09-0.18,0.12-0.27c0.03-0.07,0.06-0.13,0.09-0.18
	c0.07-0.16,0.16-0.31,0.25-0.44c0.04-0.09,0.1-0.16,0.15-0.24c0.1-0.15,0.21-0.27,0.33-0.36c0.04-0.04,0.1-0.07,0.16-0.13
	c0,0,0,0,0.01,0c0.01-0.02,0.03-0.02,0.03-0.04c0.04-0.02,0.09-0.05,0.13-0.07c0.01,0,0.01,0,0.01,0s0.01-0.02,0.03-0.02
	c0.04-0.02,0.1-0.02,0.15-0.04c0.12-0.04,0.25-0.04,0.4,0c0.01,0,0.01,0.02,0.03,0l0.01,0.02c0,0,0.01,0,0.03,0
	c0.01,0.02,0.03,0.02,0.04,0.02c0.03,0.02,0.06,0.04,0.09,0.04c0.01,0,0.01,0,0.01,0c0.04,0.04,0.09,0.05,0.13,0.07v0.02h0.01
	c0.01,0.02,0.03,0.02,0.04,0.04c0.01,0,0.01,0,0.01,0c0.09,0.05,0.16,0.11,0.24,0.18c0.1,0.11,0.21,0.22,0.31,0.35
	c0.27,0.33,0.51,0.67,0.7,1c0.01-0.04,0.03-0.05,0.04-0.09c0,0,0.03,0.11,0.07,0.29c0.55,0.95,0.84,1.87,0.97,2.69
	c0.07,0.16,0.15,0.31,0.25,0.45c0.4-0.93,1.13-1.49,2.43-0.71c0.54,0.33,0.93,0.76,1.19,1.27c0.96,1.69,0.67,4.09,0.46,5.27
	c0.43-1.74,1.63-5.82,2.82-2.91c1.49,3.63,1.49,9.09,1.49,9.09s0-5.45,1.49-3.63c1.49,1.82,4.48,3.63,1.49,14.54
	c0,0-1.49,3.63-2.99,3.63v1.82h1.49v12.72h50.75V78.58c1.75-0.78,3.49-1.54,5.22-2.31c0.24-0.11,0.49-0.22,0.75-0.33
	c39.56-17.37,75.76-29.81,100.01-30.82c86.58-3.63,140.32,112.68,114.94,219.91c-25.38,107.23-2.99,123.58,14.93,132.67
	C473.19,406.79,552.31,444.95,498.57,510.38z"/>
<path class="st2" d="M104.01,106.91c0,0-3.53-3.63,1.76-3.63s19.39,0,19.39,0s3.53,0,0,3.63s-8.81,7.27-12.34,5.45
	S104.01,106.91,104.01,106.91z"/>
<path class="st2" d="M109.34,80.45v-0.13l-0.02-0.2c-0.14-2.65-2.37-4.69-4.95-4.54l-15.35,0.91c-2.56,0.15-4.56,2.44-4.42,5.09
	l0.05,0.78v0.04l0.58,10.41c0.14,2.65,2.37,4.69,4.95,4.54l15.35-0.91c2.56-0.15,4.56-2.44,4.42-5.09L109.34,80.45z M109.34,80.45
	v-0.13l-0.02-0.2c-0.14-2.65-2.37-4.69-4.95-4.54l-15.35,0.91c-2.56,0.15-4.56,2.44-4.42,5.09l0.05,0.78v0.04l0.58,10.41
	c0.14,2.65,2.37,4.69,4.95,4.54l15.35-0.91c2.56-0.15,4.56-2.44,4.42-5.09L109.34,80.45z M72.61,90.05
	c-0.04-0.11-0.09-0.22-0.14-0.35c-0.65-1.49-1.66-3.25-3.11-4.31c-0.18-0.13-0.37-0.25-0.57-0.36c-0.04-0.02-0.05-0.04-0.09-0.05
	c-0.21-0.09-0.42-0.2-0.65-0.27c0,0,0,0-0.02,0c-0.25-0.09-0.5-0.15-0.76-0.18c-4.37-0.58-2.71,4.22-2.71,4.22
	c0.85-2.6,2.9-1.89,4.81-0.44c0.53,0.4,1.04,0.85,1.52,1.31c0.48,0.45,0.92,0.93,1.29,1.33c0.21,0.24,0.41,0.45,0.58,0.65
	c0.11,0.15,0.21,0.25,0.3,0.36c0.02,0.02,0.02,0.04,0.04,0.04c0.09,0.11,0.16,0.2,0.21,0.27l0.07,0.07
	C73.35,92.14,73.08,91.21,72.61,90.05z M109.34,80.45v-0.13l-0.02-0.2c-0.14-2.65-2.37-4.69-4.95-4.54l-15.35,0.91
	c-2.56,0.15-4.56,2.44-4.42,5.09l0.05,0.78v0.04l0.58,10.41c0.14,2.65,2.37,4.69,4.95,4.54l15.35-0.91
	c2.56-0.15,4.56-2.44,4.42-5.09L109.34,80.45z M109.34,80.45v-0.13l-0.02-0.2c-0.14-2.65-2.37-4.69-4.95-4.54l-15.35,0.91
	c-2.56,0.15-4.56,2.44-4.42,5.09l0.05,0.78v0.04l0.58,10.41c0.14,2.65,2.37,4.69,4.95,4.54l15.35-0.91
	c2.56-0.15,4.56-2.44,4.42-5.09L109.34,80.45z M72.61,90.05c-0.04-0.11-0.09-0.22-0.14-0.35c-0.65-1.49-1.66-3.25-3.11-4.31
	c-0.18-0.13-0.37-0.25-0.57-0.36c-0.04-0.02-0.05-0.04-0.09-0.05c-0.21-0.09-0.42-0.2-0.65-0.27c0,0,0,0-0.02,0
	c-0.25-0.09-0.5-0.15-0.76-0.18c-4.37-0.58-2.71,4.22-2.71,4.22c0.85-2.6,2.9-1.89,4.81-0.44c0.53,0.4,1.04,0.85,1.52,1.31
	c0.48,0.45,0.92,0.93,1.29,1.33c0.21,0.24,0.41,0.45,0.58,0.65c0.11,0.15,0.21,0.25,0.3,0.36c0.02,0.02,0.02,0.04,0.04,0.04
	c0.09,0.11,0.16,0.2,0.21,0.27l0.07,0.07C73.35,92.14,73.08,91.21,72.61,90.05z M72.61,90.05c-0.04-0.11-0.09-0.22-0.14-0.35
	c-0.65-1.49-1.66-3.25-3.11-4.31c-0.18-0.13-0.37-0.25-0.57-0.36c-0.04-0.02-0.05-0.04-0.09-0.05c-0.21-0.09-0.42-0.2-0.65-0.27
	c0,0,0,0-0.02,0c-0.25-0.09-0.5-0.15-0.76-0.18c-4.37-0.58-2.71,4.22-2.71,4.22c0.85-2.6,2.9-1.89,4.81-0.44
	c0.53,0.4,1.04,0.85,1.52,1.31c0.48,0.45,0.92,0.93,1.29,1.33c0.21,0.24,0.41,0.45,0.58,0.65c0.11,0.15,0.21,0.25,0.3,0.36
	c0.02,0.02,0.02,0.04,0.04,0.04c0.09,0.11,0.16,0.2,0.21,0.27l0.07,0.07C73.35,92.14,73.08,91.21,72.61,90.05z M109.34,80.45v-0.13
	l-0.02-0.2c-0.14-2.65-2.37-4.69-4.95-4.54l-15.35,0.91c-2.56,0.15-4.56,2.44-4.42,5.09l0.05,0.78v0.04l0.58,10.41
	c0.14,2.65,2.37,4.69,4.95,4.54l15.35-0.91c2.56-0.15,4.56-2.44,4.42-5.09L109.34,80.45z M109.34,80.45v-0.13l-0.02-0.2
	c-0.14-2.65-2.37-4.69-4.95-4.54l-15.35,0.91c-2.56,0.15-4.56,2.44-4.42,5.09l0.05,0.78v0.04l0.58,10.41
	c0.14,2.65,2.37,4.69,4.95,4.54l15.35-0.91c2.56-0.15,4.56-2.44,4.42-5.09L109.34,80.45z M72.61,90.05
	c-0.04-0.11-0.09-0.22-0.14-0.35c-0.65-1.49-1.66-3.25-3.11-4.31c-0.18-0.13-0.37-0.25-0.57-0.36c-0.04-0.02-0.05-0.04-0.09-0.05
	c-0.21-0.09-0.42-0.2-0.65-0.27c0,0,0,0-0.02,0c-0.25-0.09-0.5-0.15-0.76-0.18c-4.37-0.58-2.71,4.22-2.71,4.22
	c0.85-2.6,2.9-1.89,4.81-0.44c0.53,0.4,1.04,0.85,1.52,1.31c0.48,0.45,0.92,0.93,1.29,1.33c0.21,0.24,0.41,0.45,0.58,0.65
	c0.11,0.15,0.21,0.25,0.3,0.36c0.02,0.02,0.02,0.04,0.04,0.04c0.09,0.11,0.16,0.2,0.21,0.27l0.07,0.07
	C73.35,92.14,73.08,91.21,72.61,90.05z M72.61,90.05c-0.04-0.11-0.09-0.22-0.14-0.35c-0.65-1.49-1.66-3.25-3.11-4.31
	c-0.18-0.13-0.37-0.25-0.57-0.36c-0.04-0.02-0.05-0.04-0.09-0.05c-0.21-0.09-0.42-0.2-0.65-0.27c0,0,0,0-0.02,0
	c-0.25-0.09-0.5-0.15-0.76-0.18c-4.37-0.58-2.71,4.22-2.71,4.22c0.85-2.6,2.9-1.89,4.81-0.44c0.53,0.4,1.04,0.85,1.52,1.31
	c0.48,0.45,0.92,0.93,1.29,1.33c0.21,0.24,0.41,0.45,0.58,0.65c0.11,0.15,0.21,0.25,0.3,0.36c0.02,0.02,0.02,0.04,0.04,0.04
	c0.09,0.11,0.16,0.2,0.21,0.27l0.07,0.07C73.35,92.14,73.08,91.21,72.61,90.05z M109.34,80.45v-0.13l-0.02-0.2
	c-0.14-2.65-2.37-4.69-4.95-4.54l-15.35,0.91c-2.56,0.15-4.56,2.44-4.42,5.09l0.05,0.78v0.04l0.58,10.41
	c0.14,2.65,2.37,4.69,4.95,4.54l15.35-0.91c2.56-0.15,4.56-2.44,4.42-5.09L109.34,80.45z M109.34,80.45v-0.13l-0.02-0.2
	c-0.14-2.65-2.37-4.69-4.95-4.54l-15.35,0.91c-2.56,0.15-4.56,2.44-4.42,5.09l0.05,0.78v0.04l0.58,10.41
	c0.14,2.65,2.37,4.69,4.95,4.54l15.35-0.91c2.56-0.15,4.56-2.44,4.42-5.09L109.34,80.45z M72.61,90.05
	c-0.04-0.11-0.09-0.22-0.14-0.35c-0.65-1.49-1.66-3.25-3.11-4.31c-0.18-0.13-0.37-0.25-0.57-0.36c-0.04-0.02-0.05-0.04-0.09-0.05
	c-0.21-0.09-0.42-0.2-0.65-0.27c0,0,0,0-0.02,0c-0.25-0.09-0.5-0.15-0.76-0.18c-4.37-0.58-2.71,4.22-2.71,4.22
	c0.85-2.6,2.9-1.89,4.81-0.44c0.53,0.4,1.04,0.85,1.52,1.31c0.48,0.45,0.92,0.93,1.29,1.33c0.21,0.24,0.41,0.45,0.58,0.65
	c0.11,0.15,0.21,0.25,0.3,0.36c0.02,0.02,0.02,0.04,0.04,0.04c0.09,0.11,0.16,0.2,0.21,0.27l0.07,0.07
	C73.35,92.14,73.08,91.21,72.61,90.05z M72.61,90.05c-0.04-0.11-0.09-0.22-0.14-0.35c-0.65-1.49-1.66-3.25-3.11-4.31
	c-0.18-0.13-0.37-0.25-0.57-0.36c-0.04-0.02-0.05-0.04-0.09-0.05c-0.21-0.09-0.42-0.2-0.65-0.27c0,0,0,0-0.02,0
	c-0.25-0.09-0.5-0.15-0.76-0.18c-4.37-0.58-2.71,4.22-2.71,4.22c0.85-2.6,2.9-1.89,4.81-0.44c0.53,0.4,1.04,0.85,1.52,1.31
	c0.48,0.45,0.92,0.93,1.29,1.33c0.21,0.24,0.41,0.45,0.58,0.65c0.11,0.15,0.21,0.25,0.3,0.36c0.02,0.02,0.02,0.04,0.04,0.04
	c0.09,0.11,0.16,0.2,0.21,0.27l0.07,0.07C73.35,92.14,73.08,91.21,72.61,90.05z M109.34,80.45v-0.13l-0.02-0.2
	c-0.14-2.65-2.37-4.69-4.95-4.54l-15.35,0.91c-2.56,0.15-4.56,2.44-4.42,5.09l0.05,0.78v0.04l0.58,10.41
	c0.14,2.65,2.37,4.69,4.95,4.54l15.35-0.91c2.56-0.15,4.56-2.44,4.42-5.09L109.34,80.45z M109.34,80.45v-0.13l-0.02-0.2
	c-0.14-2.65-2.37-4.69-4.95-4.54l-15.35,0.91c-2.56,0.15-4.56,2.44-4.42,5.09l0.05,0.78v0.04l0.58,10.41
	c0.14,2.65,2.37,4.69,4.95,4.54l15.35-0.91c2.56-0.15,4.56-2.44,4.42-5.09L109.34,80.45z M72.61,90.05
	c-0.04-0.11-0.09-0.22-0.14-0.35c-0.65-1.49-1.66-3.25-3.11-4.31c-0.18-0.13-0.37-0.25-0.57-0.36c-0.04-0.02-0.05-0.04-0.09-0.05
	c-0.21-0.09-0.42-0.2-0.65-0.27c0,0,0,0-0.02,0c-0.25-0.09-0.5-0.15-0.76-0.18c-4.37-0.58-2.71,4.22-2.71,4.22
	c0.85-2.6,2.9-1.89,4.81-0.44c0.53,0.4,1.04,0.85,1.52,1.31c0.48,0.45,0.92,0.93,1.29,1.33c0.21,0.24,0.41,0.45,0.58,0.65
	c0.11,0.15,0.21,0.25,0.3,0.36c0.02,0.02,0.02,0.04,0.04,0.04c0.09,0.11,0.16,0.2,0.21,0.27l0.07,0.07
	C73.35,92.14,73.08,91.21,72.61,90.05z M72.61,90.05c-0.04-0.11-0.09-0.22-0.14-0.35c-0.65-1.49-1.66-3.25-3.11-4.31
	c-0.18-0.13-0.37-0.25-0.57-0.36c-0.04-0.02-0.05-0.04-0.09-0.05c-0.21-0.09-0.42-0.2-0.65-0.27c0,0,0,0-0.02,0
	c-0.25-0.09-0.5-0.15-0.76-0.18c-4.37-0.58-2.71,4.22-2.71,4.22c0.85-2.6,2.9-1.89,4.81-0.44c0.53,0.4,1.04,0.85,1.52,1.31
	c0.48,0.45,0.92,0.93,1.29,1.33c0.21,0.24,0.41,0.45,0.58,0.65c0.11,0.15,0.21,0.25,0.3,0.36c0.02,0.02,0.02,0.04,0.04,0.04
	c0.09,0.11,0.16,0.2,0.21,0.27l0.07,0.07C73.35,92.14,73.08,91.21,72.61,90.05z M109.34,80.45v-0.13l-0.02-0.2
	c-0.14-2.65-2.37-4.69-4.95-4.54l-15.35,0.91c-2.56,0.15-4.56,2.44-4.42,5.09l0.05,0.78v0.04l0.58,10.41
	c0.14,2.65,2.37,4.69,4.95,4.54l15.35-0.91c2.56-0.15,4.56-2.44,4.42-5.09L109.34,80.45z M109.34,80.45v-0.13l-0.02-0.2
	c-0.14-2.65-2.37-4.69-4.95-4.54l-15.35,0.91c-2.56,0.15-4.56,2.44-4.42,5.09l0.05,0.78v0.04l0.58,10.41
	c0.14,2.65,2.37,4.69,4.95,4.54l15.35-0.91c2.56-0.15,4.56-2.44,4.42-5.09L109.34,80.45z M72.61,90.05
	c-0.04-0.11-0.09-0.22-0.14-0.35c-0.65-1.49-1.66-3.25-3.11-4.31c-0.18-0.13-0.37-0.25-0.57-0.36c-0.04-0.02-0.05-0.04-0.09-0.05
	c-0.21-0.09-0.42-0.2-0.65-0.27c0,0,0,0-0.02,0c-0.25-0.09-0.5-0.15-0.76-0.18c-4.37-0.58-2.71,4.22-2.71,4.22
	c0.85-2.6,2.9-1.89,4.81-0.44c0.53,0.4,1.04,0.85,1.52,1.31c0.48,0.45,0.92,0.93,1.29,1.33c0.21,0.24,0.41,0.45,0.58,0.65
	c0.11,0.15,0.21,0.25,0.3,0.36c0.02,0.02,0.02,0.04,0.04,0.04c0.09,0.11,0.16,0.2,0.21,0.27l0.07,0.07
	C73.35,92.14,73.08,91.21,72.61,90.05z M72.61,90.05c-0.04-0.11-0.09-0.22-0.14-0.35c-0.65-1.49-1.66-3.25-3.11-4.31
	c-0.18-0.13-0.37-0.25-0.57-0.36c-0.04-0.02-0.05-0.04-0.09-0.05c-0.21-0.09-0.42-0.2-0.65-0.27c0,0,0,0-0.02,0
	c-0.25-0.09-0.5-0.15-0.76-0.18c-4.37-0.58-2.71,4.22-2.71,4.22c0.85-2.6,2.9-1.89,4.81-0.44c0.53,0.4,1.04,0.85,1.52,1.31
	c0.48,0.45,0.92,0.93,1.29,1.33c0.21,0.24,0.41,0.45,0.58,0.65c0.11,0.15,0.21,0.25,0.3,0.36c0.02,0.02,0.02,0.04,0.04,0.04
	c0.09,0.11,0.16,0.2,0.21,0.27l0.07,0.07C73.35,92.14,73.08,91.21,72.61,90.05z M109.34,80.45v-0.13l-0.02-0.2
	c-0.14-2.65-2.37-4.69-4.95-4.54l-15.35,0.91c-2.56,0.15-4.56,2.44-4.42,5.09l0.05,0.78v0.04l0.58,10.41
	c0.14,2.65,2.37,4.69,4.95,4.54l15.35-0.91c2.56-0.15,4.56-2.44,4.42-5.09L109.34,80.45z M109.34,80.45v-0.13l-0.02-0.2
	c-0.14-2.65-2.37-4.69-4.95-4.54l-15.35,0.91c-2.56,0.15-4.56,2.44-4.42,5.09l0.05,0.78v0.04l0.58,10.41
	c0.14,2.65,2.37,4.69,4.95,4.54l15.35-0.91c2.56-0.15,4.56-2.44,4.42-5.09L109.34,80.45z M72.61,90.05
	c-0.04-0.11-0.09-0.22-0.14-0.35c-0.65-1.49-1.66-3.25-3.11-4.31c-0.18-0.13-0.37-0.25-0.57-0.36c-0.04-0.02-0.05-0.04-0.09-0.05
	c-0.21-0.09-0.42-0.2-0.65-0.27c0,0,0,0-0.02,0c-0.25-0.09-0.5-0.15-0.76-0.18c-4.37-0.58-2.71,4.22-2.71,4.22
	c0.85-2.6,2.9-1.89,4.81-0.44c0.53,0.4,1.04,0.85,1.52,1.31c0.48,0.45,0.92,0.93,1.29,1.33c0.21,0.24,0.41,0.45,0.58,0.65
	c0.11,0.15,0.21,0.25,0.3,0.36c0.02,0.02,0.02,0.04,0.04,0.04c0.09,0.11,0.16,0.2,0.21,0.27l0.07,0.07
	C73.35,92.14,73.08,91.21,72.61,90.05z M72.61,90.05c-0.04-0.11-0.09-0.22-0.14-0.35c-0.65-1.49-1.66-3.25-3.11-4.31
	c-0.18-0.13-0.37-0.25-0.57-0.36c-0.04-0.02-0.05-0.04-0.09-0.05c-0.21-0.09-0.42-0.2-0.65-0.27c0,0,0,0-0.02,0
	c-0.25-0.09-0.5-0.15-0.76-0.18c-4.37-0.58-2.71,4.22-2.71,4.22c0.85-2.6,2.9-1.89,4.81-0.44c0.53,0.4,1.04,0.85,1.52,1.31
	c0.48,0.45,0.92,0.93,1.29,1.33c0.21,0.24,0.41,0.45,0.58,0.65c0.11,0.15,0.21,0.25,0.3,0.36c0.02,0.02,0.02,0.04,0.04,0.04
	c0.09,0.11,0.16,0.2,0.21,0.27l0.07,0.07C73.35,92.14,73.08,91.21,72.61,90.05z M74.92,98.28l0.19,0.38
	c0.02-0.55,0.05-0.84,0.05-0.84S75.08,98.01,74.92,98.28z M109.34,80.45v-0.13l-0.02-0.2c-0.14-2.65-2.37-4.69-4.95-4.54
	l-15.35,0.91c-2.56,0.15-4.56,2.44-4.42,5.09l0.05,0.78v0.04l0.58,10.41c0.14,2.65,2.37,4.69,4.95,4.54l15.35-0.91
	c2.56-0.15,4.56-2.44,4.42-5.09L109.34,80.45z M140.61,57.84c0-1.82-3.54-12.72-17.69-9.09c0,0,14.15-12.72-40.68-10.9
	c0,0-7.07,1.82-8.84,7.27c0,0-20.43,5.25-9.5,34.62c0.19,0.56,0.42,1.14,0.65,1.73c0,0,0.37-0.07,0.96-0.09
	c2.33-0.05,8.24,0.85,9.66,11c0,0,5.31,5.45,5.31,0c0-1.64-0.32-5.25-0.34-9.61v-0.02c-0.04-10.1,1.59-24.17,12.72-26.72
	c0,0,25.35,20.83,39.69,13.29c0.34-0.16,0.67-0.36,0.99-0.56c0,0,0.02,0,0.02-0.02c13.73-8.81,0.74-5.63,0.02-5.45
	C134.12,63.01,140.61,59.59,140.61,57.84z M140.61,57.84c0-1.82-3.54-12.72-17.69-9.09c0,0,14.15-12.72-40.68-10.9
	c0,0-7.07,1.82-8.84,7.27c0,0-20.43,5.25-9.5,34.62c0.19,0.56,0.42,1.14,0.65,1.73c0,0,0.37-0.07,0.96-0.09
	c2.33-0.05,8.24,0.85,9.66,11c0,0,5.31,5.45,5.31,0c0-1.64-0.32-5.25-0.34-9.61v-0.02c-0.04-10.1,1.59-24.17,12.72-26.72
	c0,0,25.35,20.83,39.69,13.29c0.34-0.16,0.67-0.36,0.99-0.56c0,0,0.02,0,0.02-0.02c13.73-8.81,0.74-5.63,0.02-5.45
	C134.12,63.01,140.61,59.59,140.61,57.84z M109.34,80.45v-0.13l-0.02-0.2c-0.14-2.65-2.37-4.69-4.95-4.54l-15.35,0.91
	c-2.56,0.15-4.56,2.44-4.42,5.09l0.05,0.78v0.04l0.58,10.41c0.14,2.65,2.37,4.69,4.95,4.54l15.35-0.91
	c2.56-0.15,4.56-2.44,4.42-5.09L109.34,80.45z M74.92,98.28l0.19,0.38c0.02-0.55,0.05-0.84,0.05-0.84S75.08,98.01,74.92,98.28z
	 M72.61,90.05c-0.04-0.11-0.09-0.22-0.14-0.35c-0.65-1.49-1.66-3.25-3.11-4.31c-0.18-0.13-0.37-0.25-0.57-0.36
	c-0.04-0.02-0.05-0.04-0.09-0.05c-0.21-0.09-0.42-0.2-0.65-0.27c0,0,0,0-0.02,0c-0.25-0.09-0.5-0.15-0.76-0.18
	c-4.37-0.58-2.71,4.22-2.71,4.22c0.85-2.6,2.9-1.89,4.81-0.44c0.53,0.4,1.04,0.85,1.52,1.31c0.48,0.45,0.92,0.93,1.29,1.33
	c0.21,0.24,0.41,0.45,0.58,0.65c0.11,0.15,0.21,0.25,0.3,0.36c0.02,0.02,0.02,0.04,0.04,0.04c0.09,0.11,0.16,0.2,0.21,0.27
	l0.07,0.07C73.35,92.14,73.08,91.21,72.61,90.05z M72.61,90.05c-0.04-0.11-0.09-0.22-0.14-0.35c-0.65-1.49-1.66-3.25-3.11-4.31
	c-0.18-0.13-0.37-0.25-0.57-0.36c-0.04-0.02-0.05-0.04-0.09-0.05c-0.21-0.09-0.42-0.2-0.65-0.27c0,0,0,0-0.02,0
	c-0.25-0.09-0.5-0.15-0.76-0.18c-4.37-0.58-2.71,4.22-2.71,4.22c0.85-2.6,2.9-1.89,4.81-0.44c0.53,0.4,1.04,0.85,1.52,1.31
	c0.48,0.45,0.92,0.93,1.29,1.33c0.21,0.24,0.41,0.45,0.58,0.65c0.11,0.15,0.21,0.25,0.3,0.36c0.02,0.02,0.02,0.04,0.04,0.04
	c0.09,0.11,0.16,0.2,0.21,0.27l0.07,0.07C73.35,92.14,73.08,91.21,72.61,90.05z M74.92,98.28l0.19,0.38
	c0.02-0.55,0.05-0.84,0.05-0.84S75.08,98.01,74.92,98.28z M109.34,80.45v-0.13l-0.02-0.2c-0.14-2.65-2.37-4.69-4.95-4.54
	l-15.35,0.91c-2.56,0.15-4.56,2.44-4.42,5.09l0.05,0.78v0.04l0.58,10.41c0.14,2.65,2.37,4.69,4.95,4.54l15.35-0.91
	c2.56-0.15,4.56-2.44,4.42-5.09L109.34,80.45z M140.61,57.84c0-1.82-3.54-12.72-17.69-9.09c0,0,14.15-12.72-40.68-10.9
	c0,0-7.07,1.82-8.84,7.27c0,0-20.43,5.25-9.5,34.62c0.19,0.56,0.42,1.14,0.65,1.73c0,0,0.37-0.07,0.96-0.09
	c2.33-0.05,8.24,0.85,9.66,11c0,0,5.31,5.45,5.31,0c0-1.64-0.32-5.25-0.34-9.61v-0.02c-0.04-10.1,1.59-24.17,12.72-26.72
	c0,0,25.35,20.83,39.69,13.29c0.34-0.16,0.67-0.36,0.99-0.56c0,0,0.02,0,0.02-0.02c13.73-8.81,0.74-5.63,0.02-5.45
	C134.12,63.01,140.61,59.59,140.61,57.84z M139.82,85.38l-0.44-7.92c-0.14-2.27-1.8-4.09-3.89-4.47c-0.35-0.07-0.71-0.09-1.08-0.07
	l-0.69,0.04l-12.88,0.76c-2.58,0.15-4.56,2.45-4.42,5.09l0.05,0.95v0.15l0.62,11.05c0.11,1.67,1.03,3.11,2.35,3.87
	c0.76,0.49,1.66,0.73,2.62,0.67l13.25-0.78l0.32-0.02c2.58-0.15,4.56-2.45,4.42-5.09L139.82,85.38z M182.8,109.95
	c0,0.02-0.02,0.02-0.04,0.04c0.05-0.04,0.12-0.07,0.19-0.11C182.9,109.89,182.85,109.93,182.8,109.95z M183.19,109.82
	c-0.02,0-0.04,0.02-0.05,0.02c0.04-0.02,0.07-0.02,0.12-0.02H183.19z M183.67,109.8h-0.09c-0.02,0-0.04,0.02-0.05,0.02
	c0.02-0.02,0.04-0.02,0.07,0h0.07c0.02,0,0.02,0,0.02,0C183.68,109.8,183.67,109.8,183.67,109.8z M183.9,109.88
	c-0.04-0.02-0.05-0.02-0.09-0.02c0.04,0.02,0.07,0.04,0.11,0.04C183.9,109.88,183.9,109.88,183.9,109.88z M179.76,117.42
	c0.02-0.04,0.02-0.07,0.02-0.13v-0.22C179.76,117.22,179.76,117.33,179.76,117.42z M179.77,116.86v0.09
	c0.02-0.04,0.02-0.09,0.02-0.15C179.79,116.82,179.77,116.84,179.77,116.86z M139.82,85.38l-0.44-7.92
	c-0.14-2.27-1.8-4.09-3.89-4.47c-0.35-0.07-0.71-0.09-1.08-0.07l-0.69,0.04l-12.88,0.76c-2.58,0.15-4.56,2.45-4.42,5.09l0.05,0.95
	v0.15l0.62,11.05c0.11,1.67,1.03,3.11,2.35,3.87c0.76,0.49,1.66,0.73,2.62,0.67l13.25-0.78l0.32-0.02c2.58-0.15,4.56-2.45,4.42-5.09
	L139.82,85.38z M140.61,57.84c0-1.82-3.54-12.72-17.69-9.09c0,0,14.15-12.72-40.68-10.9c0,0-7.07,1.82-8.84,7.27
	c0,0-20.43,5.25-9.5,34.62c0.19,0.56,0.42,1.14,0.65,1.73c0,0,0.37-0.07,0.96-0.09c2.33-0.05,8.24,0.85,9.66,11
	c0,0,5.31,5.45,5.31,0c0-1.64-0.32-5.25-0.34-9.61v-0.02c-0.04-10.1,1.59-24.17,12.72-26.72c0,0,25.35,20.83,39.69,13.29
	c0.34-0.16,0.67-0.36,0.99-0.56c0,0,0.02,0,0.02-0.02c13.73-8.81,0.74-5.63,0.02-5.45C134.12,63.01,140.61,59.59,140.61,57.84z
	 M109.34,80.45v-0.13l-0.02-0.2c-0.14-2.65-2.37-4.69-4.95-4.54l-15.35,0.91c-2.56,0.15-4.56,2.44-4.42,5.09l0.05,0.78v0.04
	l0.58,10.41c0.14,2.65,2.37,4.69,4.95,4.54l15.35-0.91c2.56-0.15,4.56-2.44,4.42-5.09L109.34,80.45z M74.92,98.28l0.19,0.38
	c0.02-0.55,0.05-0.84,0.05-0.84S75.08,98.01,74.92,98.28z M72.61,90.05c-0.04-0.11-0.09-0.22-0.14-0.35
	c-0.65-1.49-1.66-3.25-3.11-4.31c-0.18-0.13-0.37-0.25-0.57-0.36c-0.04-0.02-0.05-0.04-0.09-0.05c-0.21-0.09-0.42-0.2-0.65-0.27
	c0,0,0,0-0.02,0c-0.25-0.09-0.5-0.15-0.76-0.18c-4.37-0.58-2.71,4.22-2.71,4.22c0.85-2.6,2.9-1.89,4.81-0.44
	c0.53,0.4,1.04,0.85,1.52,1.31c0.48,0.45,0.92,0.93,1.29,1.33c0.21,0.24,0.41,0.45,0.58,0.65c0.11,0.15,0.21,0.25,0.3,0.36
	c0.02,0.02,0.02,0.04,0.04,0.04c0.09,0.11,0.16,0.2,0.21,0.27l0.07,0.07C73.35,92.14,73.08,91.21,72.61,90.05z M72.61,90.05
	c-0.04-0.11-0.09-0.22-0.14-0.35c-0.65-1.49-1.66-3.25-3.11-4.31c-0.18-0.13-0.37-0.25-0.57-0.36c-0.04-0.02-0.05-0.04-0.09-0.05
	c-0.21-0.09-0.42-0.2-0.65-0.27c0,0,0,0-0.02,0c-0.25-0.09-0.5-0.15-0.76-0.18c-4.37-0.58-2.71,4.22-2.71,4.22
	c0.85-2.6,2.9-1.89,4.81-0.44c0.53,0.4,1.04,0.85,1.52,1.31c0.48,0.45,0.92,0.93,1.29,1.33c0.21,0.24,0.41,0.45,0.58,0.65
	c0.11,0.15,0.21,0.25,0.3,0.36c0.02,0.02,0.02,0.04,0.04,0.04c0.09,0.11,0.16,0.2,0.21,0.27l0.07,0.07
	C73.35,92.14,73.08,91.21,72.61,90.05z M74.92,98.28l0.19,0.38c0.02-0.55,0.05-0.84,0.05-0.84S75.08,98.01,74.92,98.28z
	 M109.34,80.45v-0.13l-0.02-0.2c-0.14-2.65-2.37-4.69-4.95-4.54l-15.35,0.91c-2.56,0.15-4.56,2.44-4.42,5.09l0.05,0.78v0.04
	l0.58,10.41c0.14,2.65,2.37,4.69,4.95,4.54l15.35-0.91c2.56-0.15,4.56-2.44,4.42-5.09L109.34,80.45z M140.61,57.84
	c0-1.82-3.54-12.72-17.69-9.09c0,0,14.15-12.72-40.68-10.9c0,0-7.07,1.82-8.84,7.27c0,0-20.43,5.25-9.5,34.62
	c0.19,0.56,0.42,1.14,0.65,1.73c0,0,0.37-0.07,0.96-0.09c2.33-0.05,8.24,0.85,9.66,11c0,0,5.31,5.45,5.31,0
	c0-1.64-0.32-5.25-0.34-9.61v-0.02c-0.04-10.1,1.59-24.17,12.72-26.72c0,0,25.35,20.83,39.69,13.29c0.34-0.16,0.67-0.36,0.99-0.56
	c0,0,0.02,0,0.02-0.02c13.73-8.81,0.74-5.63,0.02-5.45C134.12,63.01,140.61,59.59,140.61,57.84z M139.82,85.38l-0.44-7.92
	c-0.14-2.27-1.8-4.09-3.89-4.47c-0.35-0.07-0.71-0.09-1.08-0.07l-0.69,0.04l-12.88,0.76c-2.58,0.15-4.56,2.45-4.42,5.09l0.05,0.95
	v0.15l0.62,11.05c0.11,1.67,1.03,3.11,2.35,3.87c0.76,0.49,1.66,0.73,2.62,0.67l13.25-0.78l0.32-0.02c2.58-0.15,4.56-2.45,4.42-5.09
	L139.82,85.38z M190.14,114.18c-1.54-0.78-2.41-0.22-2.88,0.71c0.99,1.56,2.48,2.64,4.3,0.56
	C191.24,114.95,190.78,114.51,190.14,114.18z M187.04,115.35c0.05-0.16,0.12-0.31,0.21-0.45c-0.12-0.15-0.21-0.29-0.3-0.45
	C187.01,114.77,187.03,115.07,187.04,115.35z M186.96,114.44c-0.16-0.82-0.5-1.74-1.15-2.69
	C185.96,112.26,186.35,113.38,186.96,114.44z M185.66,111.55c0.07,0.07,0.11,0.13,0.14,0.2c-0.05-0.18-0.09-0.29-0.09-0.29
	C185.7,111.49,185.68,111.51,185.66,111.55z M184.46,110.2c-0.09-0.07-0.18-0.13-0.28-0.18c0,0,0,0-0.02,0
	c-0.02-0.02-0.05-0.04-0.07-0.04v-0.02c-0.05-0.02-0.11-0.04-0.16-0.07c0,0,0,0-0.02,0c-0.02-0.02-0.02-0.02-0.02-0.02
	c-0.04-0.02-0.05-0.02-0.09-0.02c-0.02,0-0.04,0-0.05-0.02c-0.02,0-0.04,0-0.04,0l-0.02-0.02h-0.02c0-0.02-0.02-0.02-0.02-0.02
	h-0.09c-0.02,0-0.04,0.02-0.05,0.02h-0.34c-0.02,0-0.04,0.02-0.05,0.02c-0.04,0-0.09,0-0.12,0.02c-0.02,0-0.04,0.02-0.04,0.02
	s0,0-0.02,0c-0.05,0.02-0.11,0.05-0.16,0.07c0,0.02-0.02,0.02-0.04,0.04c-0.07,0.04-0.14,0.07-0.21,0.13
	c-0.07,0.05-0.14,0.11-0.19,0.18c-0.41,0.36-0.76,0.95-1.06,1.6c-0.04,0.09-0.09,0.18-0.12,0.29l-0.02,0.02
	c-0.05,0.13-0.11,0.27-0.16,0.42c-0.02,0.05-0.04,0.09-0.05,0.15c-0.02,0.02-0.02,0.04-0.04,0.05c0,0.02,0,0.02,0,0.02
	c-0.09,0.22-0.16,0.45-0.23,0.69c-0.07,0.2-0.12,0.42-0.19,0.62c0,0.04-0.02,0.09-0.04,0.15c-0.04,0.09-0.07,0.16-0.09,0.25
	c0,0,0.02,0.02,0,0.02c-0.04,0.2-0.09,0.38-0.14,0.56c-0.02,0.11-0.04,0.22-0.07,0.31c-0.04,0.16-0.05,0.31-0.09,0.45
	c-0.04,0.15-0.07,0.29-0.09,0.44c-0.09,0.4-0.14,0.75-0.19,0.96v-0.35c0.02-0.04,0.02-0.09,0.02-0.15v-0.15c0-0.04,0-0.05,0.02-0.09
	c0-0.13,0-0.27,0.02-0.42c0.27-4.87,0.9-20.43-2.07-21.95c-3.54-1.82-3.54,12.72-5.31,16.36c-0.53,1.11-0.58,3.36-0.39,6
	c0.85-0.78,1.86-1.85,3.04-3.27c0,0,1.54,4.76,4.63,4.31c1.57-0.22,3.56-1.78,5.93-6.03c-0.23-0.33-0.51-0.67-0.83-1
	C184.71,110.42,184.58,110.31,184.46,110.2z M139.38,77.45c-0.14-2.27-1.8-4.09-3.89-4.47c-0.35-0.07-0.71-0.09-1.08-0.07
	l-0.69,0.04l-12.88,0.76c-2.58,0.15-4.56,2.45-4.42,5.09l0.05,0.95v0.15l0.62,11.05c0.11,1.67,1.03,3.11,2.35,3.87
	c0.76,0.49,1.66,0.73,2.62,0.67l13.25-0.78l0.32-0.02c2.58-0.15,4.56-2.45,4.42-5.09l-0.23-4.22L139.38,77.45z M122.93,48.76
	c0,0,14.15-12.72-40.68-10.9c0,0-7.07,1.82-8.84,7.27c0,0-20.43,5.25-9.5,34.62c0.19,0.56,0.42,1.14,0.65,1.73
	c0,0,0.37-0.07,0.96-0.09c2.33-0.05,8.24,0.85,9.66,11c0,0,5.31,5.45,5.31,0c0-1.64-0.32-5.25-0.34-9.61v-0.02
	c-0.04-10.1,1.59-24.17,12.72-26.72c0,0,25.35,20.83,39.69,13.29c0.34-0.16,0.67-0.36,0.99-0.56c0,0,0.02,0,0.02-0.02
	c13.73-8.81,0.74-5.63,0.02-5.45c0.55-0.27,7.04-3.69,7.04-5.43C140.61,56.03,137.08,45.12,122.93,48.76z M109.34,80.33l-0.02-0.2
	c-0.14-2.65-2.37-4.69-4.95-4.54l-15.35,0.91c-2.56,0.15-4.56,2.44-4.42,5.09l0.05,0.78v0.04l0.58,10.41
	c0.14,2.65,2.37,4.69,4.95,4.54l15.35-0.91c2.56-0.15,4.56-2.44,4.42-5.09l-0.62-10.9V80.33z M75.12,98.66
	c0.02-0.55,0.05-0.84,0.05-0.84s-0.09,0.18-0.25,0.45L75.12,98.66z M72.46,89.7c-0.65-1.49-1.66-3.25-3.11-4.31
	c-0.18-0.13-0.37-0.25-0.57-0.36c-0.04-0.02-0.05-0.04-0.09-0.05c-0.21-0.09-0.42-0.2-0.65-0.27c0,0,0,0-0.02,0
	c-0.25-0.09-0.5-0.15-0.76-0.18c-4.37-0.58-2.71,4.22-2.71,4.22c0.85-2.6,2.9-1.89,4.81-0.44c0.53,0.4,1.04,0.85,1.52,1.31
	c0.48,0.45,0.92,0.93,1.29,1.33c0.21,0.24,0.41,0.45,0.58,0.65c0.11,0.15,0.21,0.25,0.3,0.36c0.02,0.02,0.02,0.04,0.04,0.04
	c0.09,0.11,0.16,0.2,0.21,0.27l0.07,0.07c-0.04-0.2-0.3-1.13-0.78-2.29C72.57,89.94,72.52,89.83,72.46,89.7z M0,11.5v196.28h265.31
	V11.5H0z M259.12,155.98h-60.14v-12.72h-1.77v-1.82c1.77,0,3.54-3.63,3.54-3.63c3.54-10.9,0-12.72-1.77-14.54
	c-1.77-1.82-1.77,3.63-1.77,3.63s0-5.45-1.77-9.09c-1.41-2.91-2.83,1.16-3.34,2.91c0.25-1.18,0.58-3.58-0.55-5.27
	c-0.32-0.51-0.78-0.95-1.41-1.27c-1.54-0.78-2.41-0.22-2.88,0.71c-0.12-0.15-0.21-0.29-0.3-0.45c-0.16-0.82-0.5-1.74-1.15-2.69
	c-0.05-0.18-0.09-0.29-0.09-0.29c-0.02,0.04-0.04,0.05-0.05,0.09c-0.23-0.33-0.51-0.67-0.83-1c-0.12-0.13-0.25-0.24-0.37-0.35
	c-0.09-0.07-0.18-0.13-0.28-0.18c0,0,0,0-0.02,0c-0.02-0.02-0.05-0.04-0.07-0.04v-0.02c-0.05-0.02-0.11-0.04-0.16-0.07
	c0,0,0,0-0.02,0c-0.02-0.02-0.02-0.02-0.02-0.02c-0.04-0.02-0.05-0.02-0.09-0.02c-0.02,0-0.04,0-0.05-0.02c-0.02,0-0.04,0-0.04,0
	l-0.02-0.02h-0.02c0-0.02-0.02-0.02-0.02-0.02h-0.09c-0.02,0-0.04,0.02-0.05,0.02h-0.34c-0.02,0-0.04,0.02-0.05,0.02
	c-0.04,0-0.09,0-0.12,0.02c-0.02,0-0.04,0.02-0.04,0.02s0,0-0.02,0c-0.05,0.02-0.11,0.05-0.16,0.07c0,0.02-0.02,0.02-0.04,0.04
	c-0.07,0.04-0.14,0.07-0.21,0.13c-0.07,0.05-0.14,0.11-0.19,0.18c-0.41,0.36-0.76,0.95-1.06,1.6c-0.04,0.09-0.09,0.18-0.12,0.29
	l-0.02,0.02c-0.05,0.13-0.11,0.27-0.16,0.42c-0.02,0.05-0.04,0.09-0.05,0.15c-0.02,0.02-0.02,0.04-0.04,0.05c0,0.02,0,0.02,0,0.02
	c-0.09,0.22-0.16,0.45-0.23,0.69c-0.07,0.2-0.12,0.42-0.19,0.62c0,0.04-0.02,0.09-0.04,0.15c-0.04,0.09-0.07,0.16-0.09,0.25
	c0,0,0.02,0.02,0,0.02c-0.04,0.2-0.09,0.38-0.14,0.56c-0.02,0.11-0.04,0.22-0.07,0.31c-0.04,0.16-0.05,0.31-0.09,0.45
	c-0.04,0.15-0.07,0.29-0.09,0.44c-0.09,0.4-0.14,0.75-0.19,0.96v-0.35c0.02-0.04,0.02-0.09,0.02-0.15v-0.15c0-0.04,0-0.05,0.02-0.09
	c0-0.13,0-0.27,0.02-0.42c0.27-4.87,0.9-20.43-2.07-21.95c-3.54-1.82-3.54,12.72-5.31,16.36c-0.53,1.11-0.58,3.36-0.39,6
	c0.34,4.73,1.47,10.6,1.95,12.96c-0.34-0.71-1.19-1.16-3.33,1.04c-3.54,3.63,5.31,12.72,5.31,12.72h-1.77c0,0-0.37,5.69-0.94,12.72
	h-17.47c-13.69-21.06-34.65-19.99-34.65-19.99l-3.54-5.45c-12.38,12.72-24.76,0-24.76,0l-5.31,5.45c-15.33,0-26.28,8.78-34.01,19.99
	H34.49V21.5h224.63V155.98z M139.38,77.45c-0.14-2.27-1.8-4.09-3.89-4.47c-0.35-0.07-0.71-0.09-1.08-0.07l-0.69,0.04l-12.88,0.76
	c-2.58,0.15-4.56,2.45-4.42,5.09l0.05,0.95v0.15l0.62,11.05c0.11,1.67,1.03,3.11,2.35,3.87c0.76,0.49,1.66,0.73,2.62,0.67
	l13.25-0.78l0.32-0.02c2.58-0.15,4.56-2.45,4.42-5.09l-0.23-4.22L139.38,77.45z M122.93,48.76c0,0,14.15-12.72-40.68-10.9
	c0,0-7.07,1.82-8.84,7.27c0,0-20.43,5.25-9.5,34.62c0.19,0.56,0.42,1.14,0.65,1.73c0,0,0.37-0.07,0.96-0.09
	c2.33-0.05,8.24,0.85,9.66,11c0,0,5.31,5.45,5.31,0c0-1.64-0.32-5.25-0.34-9.61v-0.02c-0.04-10.1,1.59-24.17,12.72-26.72
	c0,0,25.35,20.83,39.69,13.29c0.34-0.16,0.67-0.36,0.99-0.56c0,0,0.02,0,0.02-0.02c13.73-8.81,0.74-5.63,0.02-5.45
	c0.55-0.27,7.04-3.69,7.04-5.43C140.61,56.03,137.08,45.12,122.93,48.76z M109.34,80.33l-0.02-0.2c-0.14-2.65-2.37-4.69-4.95-4.54
	l-15.35,0.91c-2.56,0.15-4.56,2.44-4.42,5.09l0.05,0.78v0.04l0.58,10.41c0.14,2.65,2.37,4.69,4.95,4.54l15.35-0.91
	c2.56-0.15,4.56-2.44,4.42-5.09l-0.62-10.9V80.33z M75.12,98.66c0.02-0.55,0.05-0.84,0.05-0.84s-0.09,0.18-0.25,0.45L75.12,98.66z
	 M72.46,89.7c-0.65-1.49-1.66-3.25-3.11-4.31c-0.18-0.13-0.37-0.25-0.57-0.36c-0.04-0.02-0.05-0.04-0.09-0.05
	c-0.21-0.09-0.42-0.2-0.65-0.27c0,0,0,0-0.02,0c-0.25-0.09-0.5-0.15-0.76-0.18c-4.37-0.58-2.71,4.22-2.71,4.22
	c0.85-2.6,2.9-1.89,4.81-0.44c0.53,0.4,1.04,0.85,1.52,1.31c0.48,0.45,0.92,0.93,1.29,1.33c0.21,0.24,0.41,0.45,0.58,0.65
	c0.11,0.15,0.21,0.25,0.3,0.36c0.02,0.02,0.02,0.04,0.04,0.04c0.09,0.11,0.16,0.2,0.21,0.27l0.07,0.07c-0.04-0.2-0.3-1.13-0.78-2.29
	C72.57,89.94,72.52,89.83,72.46,89.7z M72.61,90.05c-0.04-0.11-0.09-0.22-0.14-0.35c-0.65-1.49-1.66-3.25-3.11-4.31
	c-0.18-0.13-0.37-0.25-0.57-0.36c-0.04-0.02-0.05-0.04-0.09-0.05c-0.21-0.09-0.42-0.2-0.65-0.27c0,0,0,0-0.02,0
	c-0.25-0.09-0.5-0.15-0.76-0.18c-4.37-0.58-2.71,4.22-2.71,4.22c0.85-2.6,2.9-1.89,4.81-0.44c0.53,0.4,1.04,0.85,1.52,1.31
	c0.48,0.45,0.92,0.93,1.29,1.33c0.21,0.24,0.41,0.45,0.58,0.65c0.11,0.15,0.21,0.25,0.3,0.36c0.02,0.02,0.02,0.04,0.04,0.04
	c0.09,0.11,0.16,0.2,0.21,0.27l0.07,0.07C73.35,92.14,73.08,91.21,72.61,90.05z M74.92,98.28l0.19,0.38
	c0.02-0.55,0.05-0.84,0.05-0.84S75.08,98.01,74.92,98.28z M109.34,80.45v-0.13l-0.02-0.2c-0.14-2.65-2.37-4.69-4.95-4.54
	l-15.35,0.91c-2.56,0.15-4.56,2.44-4.42,5.09l0.05,0.78v0.04l0.58,10.41c0.14,2.65,2.37,4.69,4.95,4.54l15.35-0.91
	c2.56-0.15,4.56-2.44,4.42-5.09L109.34,80.45z M140.61,57.84c0-1.82-3.54-12.72-17.69-9.09c0,0,14.15-12.72-40.68-10.9
	c0,0-7.07,1.82-8.84,7.27c0,0-20.43,5.25-9.5,34.62c0.19,0.56,0.42,1.14,0.65,1.73c0,0,0.37-0.07,0.96-0.09
	c2.33-0.05,8.24,0.85,9.66,11c0,0,5.31,5.45,5.31,0c0-1.64-0.32-5.25-0.34-9.61v-0.02c-0.04-10.1,1.59-24.17,12.72-26.72
	c0,0,25.35,20.83,39.69,13.29c0.34-0.16,0.67-0.36,0.99-0.56c0,0,0.02,0,0.02-0.02c13.73-8.81,0.74-5.63,0.02-5.45
	C134.12,63.01,140.61,59.59,140.61,57.84z M139.82,85.38l-0.44-7.92c-0.14-2.27-1.8-4.09-3.89-4.47c-0.35-0.07-0.71-0.09-1.08-0.07
	l-0.69,0.04l-12.88,0.76c-2.58,0.15-4.56,2.45-4.42,5.09l0.05,0.95v0.15l0.62,11.05c0.11,1.67,1.03,3.11,2.35,3.87
	c0.76,0.49,1.66,0.73,2.62,0.67l13.25-0.78l0.32-0.02c2.58-0.15,4.56-2.45,4.42-5.09L139.82,85.38z M179.76,117.42
	c0.02-0.04,0.02-0.07,0.02-0.13v-0.22C179.76,117.22,179.76,117.33,179.76,117.42z M179.77,116.86v0.09
	c0.02-0.04,0.02-0.09,0.02-0.15C179.79,116.82,179.77,116.84,179.77,116.86z M180.36,114.55c0,0,0.02,0.02,0,0.02
	c0.02-0.02,0.02-0.04,0.04-0.07c0.02-0.07,0.04-0.13,0.05-0.2C180.41,114.38,180.38,114.46,180.36,114.55z M182.8,109.95
	c0,0.02-0.02,0.02-0.04,0.04c0.05-0.04,0.12-0.07,0.19-0.11C182.9,109.89,182.85,109.93,182.8,109.95z M183.19,109.82
	c-0.02,0-0.04,0.02-0.05,0.02c0.04-0.02,0.07-0.02,0.12-0.02H183.19z M183.67,109.8h-0.09c-0.02,0-0.04,0.02-0.05,0.02
	c0.02-0.02,0.04-0.02,0.07,0h0.07c0.02,0,0.02,0,0.02,0C183.68,109.8,183.67,109.8,183.67,109.8z M183.9,109.88
	c-0.04-0.02-0.05-0.02-0.09-0.02c0.04,0.02,0.07,0.04,0.11,0.04C183.9,109.88,183.9,109.88,183.9,109.88z M139.82,85.38l-0.44-7.92
	c-0.14-2.27-1.8-4.09-3.89-4.47c-0.35-0.07-0.71-0.09-1.08-0.07l-0.69,0.04l-12.88,0.76c-2.58,0.15-4.56,2.45-4.42,5.09l0.05,0.95
	v0.15l0.62,11.05c0.11,1.67,1.03,3.11,2.35,3.87c0.76,0.49,1.66,0.73,2.62,0.67l13.25-0.78l0.32-0.02c2.58-0.15,4.56-2.45,4.42-5.09
	L139.82,85.38z M140.61,57.84c0-1.82-3.54-12.72-17.69-9.09c0,0,14.15-12.72-40.68-10.9c0,0-7.07,1.82-8.84,7.27
	c0,0-20.43,5.25-9.5,34.62c0.19,0.56,0.42,1.14,0.65,1.73c0,0,0.37-0.07,0.96-0.09c2.33-0.05,8.24,0.85,9.66,11
	c0,0,5.31,5.45,5.31,0c0-1.64-0.32-5.25-0.34-9.61v-0.02c-0.04-10.1,1.59-24.17,12.72-26.72c0,0,25.35,20.83,39.69,13.29
	c0.34-0.16,0.67-0.36,0.99-0.56c0,0,0.02,0,0.02-0.02c13.73-8.81,0.74-5.63,0.02-5.45C134.12,63.01,140.61,59.59,140.61,57.84z
	 M109.34,80.45v-0.13l-0.02-0.2c-0.14-2.65-2.37-4.69-4.95-4.54l-15.35,0.91c-2.56,0.15-4.56,2.44-4.42,5.09l0.05,0.78v0.04
	l0.58,10.41c0.14,2.65,2.37,4.69,4.95,4.54l15.35-0.91c2.56-0.15,4.56-2.44,4.42-5.09L109.34,80.45z M74.92,98.28l0.19,0.38
	c0.02-0.55,0.05-0.84,0.05-0.84S75.08,98.01,74.92,98.28z M72.61,90.05c-0.04-0.11-0.09-0.22-0.14-0.35
	c-0.65-1.49-1.66-3.25-3.11-4.31c-0.18-0.13-0.37-0.25-0.57-0.36c-0.04-0.02-0.05-0.04-0.09-0.05c-0.21-0.09-0.42-0.2-0.65-0.27
	c0,0,0,0-0.02,0c-0.25-0.09-0.5-0.15-0.76-0.18c-4.37-0.58-2.71,4.22-2.71,4.22c0.85-2.6,2.9-1.89,4.81-0.44
	c0.53,0.4,1.04,0.85,1.52,1.31c0.48,0.45,0.92,0.93,1.29,1.33c0.21,0.24,0.41,0.45,0.58,0.65c0.11,0.15,0.21,0.25,0.3,0.36
	c0.02,0.02,0.02,0.04,0.04,0.04c0.09,0.11,0.16,0.2,0.21,0.27l0.07,0.07C73.35,92.14,73.08,91.21,72.61,90.05z M72.61,90.05
	c-0.04-0.11-0.09-0.22-0.14-0.35c-0.65-1.49-1.66-3.25-3.11-4.31c-0.18-0.13-0.37-0.25-0.57-0.36c-0.04-0.02-0.05-0.04-0.09-0.05
	c-0.21-0.09-0.42-0.2-0.65-0.27c0,0,0,0-0.02,0c-0.25-0.09-0.5-0.15-0.76-0.18c-4.37-0.58-2.71,4.22-2.71,4.22
	c0.85-2.6,2.9-1.89,4.81-0.44c0.53,0.4,1.04,0.85,1.52,1.31c0.48,0.45,0.92,0.93,1.29,1.33c0.21,0.24,0.41,0.45,0.58,0.65
	c0.11,0.15,0.21,0.25,0.3,0.36c0.02,0.02,0.02,0.04,0.04,0.04c0.09,0.11,0.16,0.2,0.21,0.27l0.07,0.07
	C73.35,92.14,73.08,91.21,72.61,90.05z M74.92,98.28l0.19,0.38c0.02-0.55,0.05-0.84,0.05-0.84S75.08,98.01,74.92,98.28z
	 M109.34,80.45v-0.13l-0.02-0.2c-0.14-2.65-2.37-4.69-4.95-4.54l-15.35,0.91c-2.56,0.15-4.56,2.44-4.42,5.09l0.05,0.78v0.04
	l0.58,10.41c0.14,2.65,2.37,4.69,4.95,4.54l15.35-0.91c2.56-0.15,4.56-2.44,4.42-5.09L109.34,80.45z M140.61,57.84
	c0-1.82-3.54-12.72-17.69-9.09c0,0,14.15-12.72-40.68-10.9c0,0-7.07,1.82-8.84,7.27c0,0-20.43,5.25-9.5,34.62
	c0.19,0.56,0.42,1.14,0.65,1.73c0,0,0.37-0.07,0.96-0.09c2.33-0.05,8.24,0.85,9.66,11c0,0,5.31,5.45,5.31,0
	c0-1.64-0.32-5.25-0.34-9.61v-0.02c-0.04-10.1,1.59-24.17,12.72-26.72c0,0,25.35,20.83,39.69,13.29c0.34-0.16,0.67-0.36,0.99-0.56
	c0,0,0.02,0,0.02-0.02c13.73-8.81,0.74-5.63,0.02-5.45C134.12,63.01,140.61,59.59,140.61,57.84z M139.82,85.38l-0.44-7.92
	c-0.14-2.27-1.8-4.09-3.89-4.47c-0.35-0.07-0.71-0.09-1.08-0.07l-0.69,0.04l-12.88,0.76c-2.58,0.15-4.56,2.45-4.42,5.09l0.05,0.95
	v0.15l0.62,11.05c0.11,1.67,1.03,3.11,2.35,3.87c0.76,0.49,1.66,0.73,2.62,0.67l13.25-0.78l0.32-0.02c2.58-0.15,4.56-2.45,4.42-5.09
	L139.82,85.38z M139.82,85.38l-0.44-7.92c-0.14-2.27-1.8-4.09-3.89-4.47c-0.35-0.07-0.71-0.09-1.08-0.07l-0.69,0.04l-12.88,0.76
	c-2.58,0.15-4.56,2.45-4.42,5.09l0.05,0.95v0.15l0.62,11.05c0.11,1.67,1.03,3.11,2.35,3.87c0.76,0.49,1.66,0.73,2.62,0.67
	l13.25-0.78l0.32-0.02c2.58-0.15,4.56-2.45,4.42-5.09L139.82,85.38z M140.61,57.84c0-1.82-3.54-12.72-17.69-9.09
	c0,0,14.15-12.72-40.68-10.9c0,0-7.07,1.82-8.84,7.27c0,0-20.43,5.25-9.5,34.62c0.19,0.56,0.42,1.14,0.65,1.73
	c0,0,0.37-0.07,0.96-0.09c2.33-0.05,8.24,0.85,9.66,11c0,0,5.31,5.45,5.31,0c0-1.64-0.32-5.25-0.34-9.61v-0.02
	c-0.04-10.1,1.59-24.17,12.72-26.72c0,0,25.35,20.83,39.69,13.29c0.34-0.16,0.67-0.36,0.99-0.56c0,0,0.02,0,0.02-0.02
	c13.73-8.81,0.74-5.63,0.02-5.45C134.12,63.01,140.61,59.59,140.61,57.84z M109.34,80.45v-0.13l-0.02-0.2
	c-0.14-2.65-2.37-4.69-4.95-4.54l-15.35,0.91c-2.56,0.15-4.56,2.44-4.42,5.09l0.05,0.78v0.04l0.58,10.41
	c0.14,2.65,2.37,4.69,4.95,4.54l15.35-0.91c2.56-0.15,4.56-2.44,4.42-5.09L109.34,80.45z M74.92,98.28l0.19,0.38
	c0.02-0.55,0.05-0.84,0.05-0.84S75.08,98.01,74.92,98.28z M72.61,90.05c-0.04-0.11-0.09-0.22-0.14-0.35
	c-0.65-1.49-1.66-3.25-3.11-4.31c-0.18-0.13-0.37-0.25-0.57-0.36c-0.04-0.02-0.05-0.04-0.09-0.05c-0.21-0.09-0.42-0.2-0.65-0.27
	c0,0,0,0-0.02,0c-0.25-0.09-0.5-0.15-0.76-0.18c-4.37-0.58-2.71,4.22-2.71,4.22c0.85-2.6,2.9-1.89,4.81-0.44
	c0.53,0.4,1.04,0.85,1.52,1.31c0.48,0.45,0.92,0.93,1.29,1.33c0.21,0.24,0.41,0.45,0.58,0.65c0.11,0.15,0.21,0.25,0.3,0.36
	c0.02,0.02,0.02,0.04,0.04,0.04c0.09,0.11,0.16,0.2,0.21,0.27l0.07,0.07C73.35,92.14,73.08,91.21,72.61,90.05z M72.61,90.05
	c-0.04-0.11-0.09-0.22-0.14-0.35c-0.65-1.49-1.66-3.25-3.11-4.31c-0.18-0.13-0.37-0.25-0.57-0.36c-0.04-0.02-0.05-0.04-0.09-0.05
	c-0.21-0.09-0.42-0.2-0.65-0.27c0,0,0,0-0.02,0c-0.25-0.09-0.5-0.15-0.76-0.18c-4.37-0.58-2.71,4.22-2.71,4.22
	c0.85-2.6,2.9-1.89,4.81-0.44c0.53,0.4,1.04,0.85,1.52,1.31c0.48,0.45,0.92,0.93,1.29,1.33c0.21,0.24,0.41,0.45,0.58,0.65
	c0.11,0.15,0.21,0.25,0.3,0.36c0.02,0.02,0.02,0.04,0.04,0.04c0.09,0.11,0.16,0.2,0.21,0.27l0.07,0.07
	C73.35,92.14,73.08,91.21,72.61,90.05z M74.92,98.28l0.19,0.38c0.02-0.55,0.05-0.84,0.05-0.84S75.08,98.01,74.92,98.28z
	 M109.34,80.45v-0.13l-0.02-0.2c-0.14-2.65-2.37-4.69-4.95-4.54l-15.35,0.91c-2.56,0.15-4.56,2.44-4.42,5.09l0.05,0.78v0.04
	l0.58,10.41c0.14,2.65,2.37,4.69,4.95,4.54l15.35-0.91c2.56-0.15,4.56-2.44,4.42-5.09L109.34,80.45z M140.61,57.84
	c0-1.82-3.54-12.72-17.69-9.09c0,0,14.15-12.72-40.68-10.9c0,0-7.07,1.82-8.84,7.27c0,0-20.43,5.25-9.5,34.62
	c0.19,0.56,0.42,1.14,0.65,1.73c0,0,0.37-0.07,0.96-0.09c2.33-0.05,8.24,0.85,9.66,11c0,0,5.31,5.45,5.31,0
	c0-1.64-0.32-5.25-0.34-9.61v-0.02c-0.04-10.1,1.59-24.17,12.72-26.72c0,0,25.35,20.83,39.69,13.29c0.34-0.16,0.67-0.36,0.99-0.56
	c0,0,0.02,0,0.02-0.02c13.73-8.81,0.74-5.63,0.02-5.45C134.12,63.01,140.61,59.59,140.61,57.84z M140.61,57.84
	c0-1.82-3.54-12.72-17.69-9.09c0,0,14.15-12.72-40.68-10.9c0,0-7.07,1.82-8.84,7.27c0,0-20.43,5.25-9.5,34.62
	c0.19,0.56,0.42,1.14,0.65,1.73c0,0,0.37-0.07,0.96-0.09c2.33-0.05,8.24,0.85,9.66,11c0,0,5.31,5.45,5.31,0
	c0-1.64-0.32-5.25-0.34-9.61v-0.02c-0.04-10.1,1.59-24.17,12.72-26.72c0,0,25.35,20.83,39.69,13.29c0.34-0.16,0.67-0.36,0.99-0.56
	c0,0,0.02,0,0.02-0.02c13.73-8.81,0.74-5.63,0.02-5.45C134.12,63.01,140.61,59.59,140.61,57.84z M109.34,80.45v-0.13l-0.02-0.2
	c-0.14-2.65-2.37-4.69-4.95-4.54l-15.35,0.91c-2.56,0.15-4.56,2.44-4.42,5.09l0.05,0.78v0.04l0.58,10.41
	c0.14,2.65,2.37,4.69,4.95,4.54l15.35-0.91c2.56-0.15,4.56-2.44,4.42-5.09L109.34,80.45z M74.92,98.28l0.19,0.38
	c0.02-0.55,0.05-0.84,0.05-0.84S75.08,98.01,74.92,98.28z M72.61,90.05c-0.04-0.11-0.09-0.22-0.14-0.35
	c-0.65-1.49-1.66-3.25-3.11-4.31c-0.18-0.13-0.37-0.25-0.57-0.36c-0.04-0.02-0.05-0.04-0.09-0.05c-0.21-0.09-0.42-0.2-0.65-0.27
	c0,0,0,0-0.02,0c-0.25-0.09-0.5-0.15-0.76-0.18c-4.37-0.58-2.71,4.22-2.71,4.22c0.85-2.6,2.9-1.89,4.81-0.44
	c0.53,0.4,1.04,0.85,1.52,1.31c0.48,0.45,0.92,0.93,1.29,1.33c0.21,0.24,0.41,0.45,0.58,0.65c0.11,0.15,0.21,0.25,0.3,0.36
	c0.02,0.02,0.02,0.04,0.04,0.04c0.09,0.11,0.16,0.2,0.21,0.27l0.07,0.07C73.35,92.14,73.08,91.21,72.61,90.05z M72.61,90.05
	c-0.04-0.11-0.09-0.22-0.14-0.35c-0.65-1.49-1.66-3.25-3.11-4.31c-0.18-0.13-0.37-0.25-0.57-0.36c-0.04-0.02-0.05-0.04-0.09-0.05
	c-0.21-0.09-0.42-0.2-0.65-0.27c0,0,0,0-0.02,0c-0.25-0.09-0.5-0.15-0.76-0.18c-4.37-0.58-2.71,4.22-2.71,4.22
	c0.85-2.6,2.9-1.89,4.81-0.44c0.53,0.4,1.04,0.85,1.52,1.31c0.48,0.45,0.92,0.93,1.29,1.33c0.21,0.24,0.41,0.45,0.58,0.65
	c0.11,0.15,0.21,0.25,0.3,0.36c0.02,0.02,0.02,0.04,0.04,0.04c0.09,0.11,0.16,0.2,0.21,0.27l0.07,0.07
	C73.35,92.14,73.08,91.21,72.61,90.05z M109.34,80.45v-0.13l-0.02-0.2c-0.14-2.65-2.37-4.69-4.95-4.54l-15.35,0.91
	c-2.56,0.15-4.56,2.44-4.42,5.09l0.05,0.78v0.04l0.58,10.41c0.14,2.65,2.37,4.69,4.95,4.54l15.35-0.91
	c2.56-0.15,4.56-2.44,4.42-5.09L109.34,80.45z M109.34,80.45v-0.13l-0.02-0.2c-0.14-2.65-2.37-4.69-4.95-4.54l-15.35,0.91
	c-2.56,0.15-4.56,2.44-4.42,5.09l0.05,0.78v0.04l0.58,10.41c0.14,2.65,2.37,4.69,4.95,4.54l15.35-0.91
	c2.56-0.15,4.56-2.44,4.42-5.09L109.34,80.45z M72.61,90.05c-0.04-0.11-0.09-0.22-0.14-0.35c-0.65-1.49-1.66-3.25-3.11-4.31
	c-0.18-0.13-0.37-0.25-0.57-0.36c-0.04-0.02-0.05-0.04-0.09-0.05c-0.21-0.09-0.42-0.2-0.65-0.27c0,0,0,0-0.02,0
	c-0.25-0.09-0.5-0.15-0.76-0.18c-4.37-0.58-2.71,4.22-2.71,4.22c0.85-2.6,2.9-1.89,4.81-0.44c0.53,0.4,1.04,0.85,1.52,1.31
	c0.48,0.45,0.92,0.93,1.29,1.33c0.21,0.24,0.41,0.45,0.58,0.65c0.11,0.15,0.21,0.25,0.3,0.36c0.02,0.02,0.02,0.04,0.04,0.04
	c0.09,0.11,0.16,0.2,0.21,0.27l0.07,0.07C73.35,92.14,73.08,91.21,72.61,90.05z M72.61,90.05c-0.04-0.11-0.09-0.22-0.14-0.35
	c-0.65-1.49-1.66-3.25-3.11-4.31c-0.18-0.13-0.37-0.25-0.57-0.36c-0.04-0.02-0.05-0.04-0.09-0.05c-0.21-0.09-0.42-0.2-0.65-0.27
	c0,0,0,0-0.02,0c-0.25-0.09-0.5-0.15-0.76-0.18c-4.37-0.58-2.71,4.22-2.71,4.22c0.85-2.6,2.9-1.89,4.81-0.44
	c0.53,0.4,1.04,0.85,1.52,1.31c0.48,0.45,0.92,0.93,1.29,1.33c0.21,0.24,0.41,0.45,0.58,0.65c0.11,0.15,0.21,0.25,0.3,0.36
	c0.02,0.02,0.02,0.04,0.04,0.04c0.09,0.11,0.16,0.2,0.21,0.27l0.07,0.07C73.35,92.14,73.08,91.21,72.61,90.05z M109.34,80.45v-0.13
	l-0.02-0.2c-0.14-2.65-2.37-4.69-4.95-4.54l-15.35,0.91c-2.56,0.15-4.56,2.44-4.42,5.09l0.05,0.78v0.04l0.58,10.41
	c0.14,2.65,2.37,4.69,4.95,4.54l15.35-0.91c2.56-0.15,4.56-2.44,4.42-5.09L109.34,80.45z M109.34,80.45v-0.13l-0.02-0.2
	c-0.14-2.65-2.37-4.69-4.95-4.54l-15.35,0.91c-2.56,0.15-4.56,2.44-4.42,5.09l0.05,0.78v0.04l0.58,10.41
	c0.14,2.65,2.37,4.69,4.95,4.54l15.35-0.91c2.56-0.15,4.56-2.44,4.42-5.09L109.34,80.45z M72.61,90.05
	c-0.04-0.11-0.09-0.22-0.14-0.35c-0.65-1.49-1.66-3.25-3.11-4.31c-0.18-0.13-0.37-0.25-0.57-0.36c-0.04-0.02-0.05-0.04-0.09-0.05
	c-0.21-0.09-0.42-0.2-0.65-0.27c0,0,0,0-0.02,0c-0.25-0.09-0.5-0.15-0.76-0.18c-4.37-0.58-2.71,4.22-2.71,4.22
	c0.85-2.6,2.9-1.89,4.81-0.44c0.53,0.4,1.04,0.85,1.52,1.31c0.48,0.45,0.92,0.93,1.29,1.33c0.21,0.24,0.41,0.45,0.58,0.65
	c0.11,0.15,0.21,0.25,0.3,0.36c0.02,0.02,0.02,0.04,0.04,0.04c0.09,0.11,0.16,0.2,0.21,0.27l0.07,0.07
	C73.35,92.14,73.08,91.21,72.61,90.05z M72.61,90.05c-0.04-0.11-0.09-0.22-0.14-0.35c-0.65-1.49-1.66-3.25-3.11-4.31
	c-0.18-0.13-0.37-0.25-0.57-0.36c-0.04-0.02-0.05-0.04-0.09-0.05c-0.21-0.09-0.42-0.2-0.65-0.27c0,0,0,0-0.02,0
	c-0.25-0.09-0.5-0.15-0.76-0.18c-4.37-0.58-2.71,4.22-2.71,4.22c0.85-2.6,2.9-1.89,4.81-0.44c0.53,0.4,1.04,0.85,1.52,1.31
	c0.48,0.45,0.92,0.93,1.29,1.33c0.21,0.24,0.41,0.45,0.58,0.65c0.11,0.15,0.21,0.25,0.3,0.36c0.02,0.02,0.02,0.04,0.04,0.04
	c0.09,0.11,0.16,0.2,0.21,0.27l0.07,0.07C73.35,92.14,73.08,91.21,72.61,90.05z M109.34,80.45v-0.13l-0.02-0.2
	c-0.14-2.65-2.37-4.69-4.95-4.54l-15.35,0.91c-2.56,0.15-4.56,2.44-4.42,5.09l0.05,0.78v0.04l0.58,10.41
	c0.14,2.65,2.37,4.69,4.95,4.54l15.35-0.91c2.56-0.15,4.56-2.44,4.42-5.09L109.34,80.45z M109.34,80.45v-0.13l-0.02-0.2
	c-0.14-2.65-2.37-4.69-4.95-4.54l-15.35,0.91c-2.56,0.15-4.56,2.44-4.42,5.09l0.05,0.78v0.04l0.58,10.41
	c0.14,2.65,2.37,4.69,4.95,4.54l15.35-0.91c2.56-0.15,4.56-2.44,4.42-5.09L109.34,80.45z M72.61,90.05
	c-0.04-0.11-0.09-0.22-0.14-0.35c-0.65-1.49-1.66-3.25-3.11-4.31c-0.18-0.13-0.37-0.25-0.57-0.36c-0.04-0.02-0.05-0.04-0.09-0.05
	c-0.21-0.09-0.42-0.2-0.65-0.27c0,0,0,0-0.02,0c-0.25-0.09-0.5-0.15-0.76-0.18c-4.37-0.58-2.71,4.22-2.71,4.22
	c0.85-2.6,2.9-1.89,4.81-0.44c0.53,0.4,1.04,0.85,1.52,1.31c0.48,0.45,0.92,0.93,1.29,1.33c0.21,0.24,0.41,0.45,0.58,0.65
	c0.11,0.15,0.21,0.25,0.3,0.36c0.02,0.02,0.02,0.04,0.04,0.04c0.09,0.11,0.16,0.2,0.21,0.27l0.07,0.07
	C73.35,92.14,73.08,91.21,72.61,90.05z M72.61,90.05c-0.04-0.11-0.09-0.22-0.14-0.35c-0.65-1.49-1.66-3.25-3.11-4.31
	c-0.18-0.13-0.37-0.25-0.57-0.36c-0.04-0.02-0.05-0.04-0.09-0.05c-0.21-0.09-0.42-0.2-0.65-0.27c0,0,0,0-0.02,0
	c-0.25-0.09-0.5-0.15-0.76-0.18c-4.37-0.58-2.71,4.22-2.71,4.22c0.85-2.6,2.9-1.89,4.81-0.44c0.53,0.4,1.04,0.85,1.52,1.31
	c0.48,0.45,0.92,0.93,1.29,1.33c0.21,0.24,0.41,0.45,0.58,0.65c0.11,0.15,0.21,0.25,0.3,0.36c0.02,0.02,0.02,0.04,0.04,0.04
	c0.09,0.11,0.16,0.2,0.21,0.27l0.07,0.07C73.35,92.14,73.08,91.21,72.61,90.05z M109.34,80.45v-0.13l-0.02-0.2
	c-0.14-2.65-2.37-4.69-4.95-4.54l-15.35,0.91c-2.56,0.15-4.56,2.44-4.42,5.09l0.05,0.78v0.04l0.58,10.41
	c0.14,2.65,2.37,4.69,4.95,4.54l15.35-0.91c2.56-0.15,4.56-2.44,4.42-5.09L109.34,80.45z M109.34,80.45v-0.13l-0.02-0.2
	c-0.14-2.65-2.37-4.69-4.95-4.54l-15.35,0.91c-2.56,0.15-4.56,2.44-4.42,5.09l0.05,0.78v0.04l0.58,10.41
	c0.14,2.65,2.37,4.69,4.95,4.54l15.35-0.91c2.56-0.15,4.56-2.44,4.42-5.09L109.34,80.45z M72.61,90.05
	c-0.04-0.11-0.09-0.22-0.14-0.35c-0.65-1.49-1.66-3.25-3.11-4.31c-0.18-0.13-0.37-0.25-0.57-0.36c-0.04-0.02-0.05-0.04-0.09-0.05
	c-0.21-0.09-0.42-0.2-0.65-0.27c0,0,0,0-0.02,0c-0.25-0.09-0.5-0.15-0.76-0.18c-4.37-0.58-2.71,4.22-2.71,4.22
	c0.85-2.6,2.9-1.89,4.81-0.44c0.53,0.4,1.04,0.85,1.52,1.31c0.48,0.45,0.92,0.93,1.29,1.33c0.21,0.24,0.41,0.45,0.58,0.65
	c0.11,0.15,0.21,0.25,0.3,0.36c0.02,0.02,0.02,0.04,0.04,0.04c0.09,0.11,0.16,0.2,0.21,0.27l0.07,0.07
	C73.35,92.14,73.08,91.21,72.61,90.05z M72.61,90.05c-0.04-0.11-0.09-0.22-0.14-0.35c-0.65-1.49-1.66-3.25-3.11-4.31
	c-0.18-0.13-0.37-0.25-0.57-0.36c-0.04-0.02-0.05-0.04-0.09-0.05c-0.21-0.09-0.42-0.2-0.65-0.27c0,0,0,0-0.02,0
	c-0.25-0.09-0.5-0.15-0.76-0.18c-4.37-0.58-2.71,4.22-2.71,4.22c0.85-2.6,2.9-1.89,4.81-0.44c0.53,0.4,1.04,0.85,1.52,1.31
	c0.48,0.45,0.92,0.93,1.29,1.33c0.21,0.24,0.41,0.45,0.58,0.65c0.11,0.15,0.21,0.25,0.3,0.36c0.02,0.02,0.02,0.04,0.04,0.04
	c0.09,0.11,0.16,0.2,0.21,0.27l0.07,0.07C73.35,92.14,73.08,91.21,72.61,90.05z M109.34,80.45v-0.13l-0.02-0.2
	c-0.14-2.65-2.37-4.69-4.95-4.54l-15.35,0.91c-2.56,0.15-4.56,2.44-4.42,5.09l0.05,0.78v0.04l0.58,10.41
	c0.14,2.65,2.37,4.69,4.95,4.54l15.35-0.91c2.56-0.15,4.56-2.44,4.42-5.09L109.34,80.45z M109.34,80.45v-0.13l-0.02-0.2
	c-0.14-2.65-2.37-4.69-4.95-4.54l-15.35,0.91c-2.56,0.15-4.56,2.44-4.42,5.09l0.05,0.78v0.04l0.58,10.41
	c0.14,2.65,2.37,4.69,4.95,4.54l15.35-0.91c2.56-0.15,4.56-2.44,4.42-5.09L109.34,80.45z M72.61,90.05
	c-0.04-0.11-0.09-0.22-0.14-0.35c-0.65-1.49-1.66-3.25-3.11-4.31c-0.18-0.13-0.37-0.25-0.57-0.36c-0.04-0.02-0.05-0.04-0.09-0.05
	c-0.21-0.09-0.42-0.2-0.65-0.27c0,0,0,0-0.02,0c-0.25-0.09-0.5-0.15-0.76-0.18c-4.37-0.58-2.71,4.22-2.71,4.22
	c0.85-2.6,2.9-1.89,4.81-0.44c0.53,0.4,1.04,0.85,1.52,1.31c0.48,0.45,0.92,0.93,1.29,1.33c0.21,0.24,0.41,0.45,0.58,0.65
	c0.11,0.15,0.21,0.25,0.3,0.36c0.02,0.02,0.02,0.04,0.04,0.04c0.09,0.11,0.16,0.2,0.21,0.27l0.07,0.07
	C73.35,92.14,73.08,91.21,72.61,90.05z M72.61,90.05c-0.04-0.11-0.09-0.22-0.14-0.35c-0.65-1.49-1.66-3.25-3.11-4.31
	c-0.18-0.13-0.37-0.25-0.57-0.36c-0.04-0.02-0.05-0.04-0.09-0.05c-0.21-0.09-0.42-0.2-0.65-0.27c0,0,0,0-0.02,0
	c-0.25-0.09-0.5-0.15-0.76-0.18c-4.37-0.58-2.71,4.22-2.71,4.22c0.85-2.6,2.9-1.89,4.81-0.44c0.53,0.4,1.04,0.85,1.52,1.31
	c0.48,0.45,0.92,0.93,1.29,1.33c0.21,0.24,0.41,0.45,0.58,0.65c0.11,0.15,0.21,0.25,0.3,0.36c0.02,0.02,0.02,0.04,0.04,0.04
	c0.09,0.11,0.16,0.2,0.21,0.27l0.07,0.07C73.35,92.14,73.08,91.21,72.61,90.05z M109.34,80.45v-0.13l-0.02-0.2
	c-0.14-2.65-2.37-4.69-4.95-4.54l-15.35,0.91c-2.56,0.15-4.56,2.44-4.42,5.09l0.05,0.78v0.04l0.58,10.41
	c0.14,2.65,2.37,4.69,4.95,4.54l15.35-0.91c2.56-0.15,4.56-2.44,4.42-5.09L109.34,80.45z M109.34,80.45v-0.13l-0.02-0.2
	c-0.14-2.65-2.37-4.69-4.95-4.54l-15.35,0.91c-2.56,0.15-4.56,2.44-4.42,5.09l0.05,0.78v0.04l0.58,10.41
	c0.14,2.65,2.37,4.69,4.95,4.54l15.35-0.91c2.56-0.15,4.56-2.44,4.42-5.09L109.34,80.45z M72.61,90.05
	c-0.04-0.11-0.09-0.22-0.14-0.35c-0.65-1.49-1.66-3.25-3.11-4.31c-0.18-0.13-0.37-0.25-0.57-0.36c-0.04-0.02-0.05-0.04-0.09-0.05
	c-0.21-0.09-0.42-0.2-0.65-0.27c0,0,0,0-0.02,0c-0.25-0.09-0.5-0.15-0.76-0.18c-4.37-0.58-2.71,4.22-2.71,4.22
	c0.85-2.6,2.9-1.89,4.81-0.44c0.53,0.4,1.04,0.85,1.52,1.31c0.48,0.45,0.92,0.93,1.29,1.33c0.21,0.24,0.41,0.45,0.58,0.65
	c0.11,0.15,0.21,0.25,0.3,0.36c0.02,0.02,0.02,0.04,0.04,0.04c0.09,0.11,0.16,0.2,0.21,0.27l0.07,0.07
	C73.35,92.14,73.08,91.21,72.61,90.05z"/>
<polygon class="st3" points="393.93,626.69 478.54,626.69 473.25,739.37 399.21,739.37 "/>
<path class="st4" d="M449.11,573.06c-6.24,13.63-27.27,6.38-27.27,6.38c-7.21,2.98-8.51,24.19-8.76,31.8h-20.03
	c0-22.08,19.34-39.98,43.19-39.98C440.72,571.26,445.04,571.9,449.11,573.06z"/>
<path class="st5" d="M479.43,611.25h-66.35c0.25-7.61,1.55-28.82,8.76-31.8c0,0,21.03,7.25,27.27-6.38
	C466.67,578.13,479.43,593.31,479.43,611.25z"/>
<path class="st6" d="M27.62,735.74H0v-37.29C16.15,704.21,27.62,718.73,27.62,735.74z"/>
<rect x="388.64" y="611.25" class="st6" width="95.19" height="14.54"/>
<polygon class="st7" points="322.6,763 283.82,541.28 303.21,541.28 329.65,763 "/>
<polygon class="st7" points="333.18,541.28 371.96,763 377.25,763 352.57,541.28 "/>
<polygon class="st7" points="218.59,548.55 181.57,763 176.29,763 200.97,548.55 "/>
<polygon class="st7" points="128.69,763 141.03,664.86 153.37,664.86 135.74,763 "/>
<path class="st8" d="M340.23,481.3c-0.18,0.04-0.35,0.05-0.53,0.07"/>
<path class="st9" d="M228.33,465.02c-0.19,0.02-0.42,0.04-0.67,0.05c-10.84,0.82-76.05,6.23-76.05,16.23
	c0,0-15.78,18.07-14.12,144.27l-48.6-18.57l-0.74-0.29c0,0,8.81-29.08,24.68-79.97s14.1-41.8,22.92-50.89s91.67-12.72,91.67-12.72
	l0.33,0.69L228.33,465.02z"/>
<path class="st8" d="M345.52,481.3c-2.79,0.91-5.92,1.54-9.33,1.96"/>
<line class="st8" x1="229.17" y1="466.76" x2="228.33" y2="465.02"/>
<path class="st10" d="M137.49,625.57l-0.9,1.98c-0.02,0.02-0.02,0.02-0.02,0.04c-0.6,0.76-1.2,1.67-1.71,2.74
	c-0.56,1.14-1.02,2.45-1.29,3.94c-0.02,0-0.02,0,0,0.02l-3.12,6.94l-2.63-1l-36.54-13.96l-4.48-1.71l-3.95-1.51
	c-2.84-11.7,3.47-15.18,6.03-16.07L137.49,625.57z"/>
<path class="st8" d="M89.91,606.7c0,0-0.41,0.07-1.02,0.29"/>
<line class="st8" x1="136.57" y1="627.58" x2="135.35" y2="630.33"/>
<polyline class="st8" points="135.35,630.33 134.86,630.33 133.98,630.33 "/>
<path class="st8" d="M136.59,627.55c0.32-0.4,0.63-0.76,0.92-1.07c0.99-1.07,1.76-1.6,1.76-1.6"/>
<path class="st11" d="M124.83,654.12c-1.2,2.24-3.19,3.85-5.46,4.56c-0.02,0.02-0.04,0.02-0.07,0.02c-1.25,0.4-2.59,0.51-3.93,0.33
	c-4.51-0.64-7.05-1.94-9.59-3.25c-3.53-1.82,17.63-16.36,21.15-12.72c0.18,0.18,0.32,0.38,0.42,0.6
	C128.58,645.99,126.75,650.52,124.83,654.12z"/>
<path class="st11" d="M182.97,657.84c0,0.09-0.02,0.2-0.04,0.31c-0.07,0.78-0.18,1.56-0.3,2.33c-0.05,0.29-0.11,0.56-0.18,0.84
	c0,0.02,0,0.02,0,0.04c-0.9,3.53-3.68,6.31-7.25,7.11c-3.24,0.75-5.64,0.8-7.77,0.64c-0.85-0.05-1.64-0.13-2.45-0.22
	c-3.97-0.44,11.42-21.65,15.99-19.5C183.09,650.36,183.32,654.1,182.97,657.84z"/>
<path class="st11" d="M75.8,650.32c-0.85,0.44-1.69,0.56-2.57,0.42c-0.02,0-0.05-0.02-0.07-0.02c-0.32-0.05-0.65-0.15-0.99-0.25
	c-0.02-0.02-0.04-0.02-0.04-0.02c-2.61-0.95-5.75-3.76-10.44-7.4c-7.05-5.45,12.34-12.72,12.34-12.72
	C79.33,637.6,79.33,648.5,75.8,650.32z"/>
<path class="st11" d="M139.83,668.06c-0.6,0.36-1.22,0.55-1.85,0.58c-0.49,0.04-1-0.02-1.53-0.15c-2.71-0.67-6.05-3.34-11.12-6.8
	c-6.5-4.42,7.54-11.58,10.88-13.16c0.04-0.02,0.09-0.04,0.12-0.05c0.04-0.02,0.07-0.04,0.12-0.05c0.28-0.15,0.44-0.22,0.44-0.22
	c0.02,0.02,0.04,0.04,0.04,0.05C142.6,655.19,143.25,666.02,139.83,668.06z"/>
<path class="st12" d="M393.12,297.74L354.33,523.1v27.26H190.39l1.76-19.99c-1.76-5.45,7.05-5.45,7.05-5.45l118.87-1.71h0.02
	l8.04-0.11c0,0,17.63,1.82,19.39-9.09c1.57-9.71,31.01-178.91,37.51-216.27H393.12z"/>
<path class="st13" d="M336.19,483.26c-0.72,2.27-1.9,7.87-3.01,21.66c-0.9,11.09-8.16,16.07-15.09,18.28h-0.02l-118.87,1.71
	c0,0-8.81,0-7.05,5.45l-1.76,19.99l-0.04,0.4l-5.25,77.75l-47.6-1.82v-0.22c0-0.31-0.02-0.6-0.02-0.91
	c-1.66-126.2,14.12-144.27,14.12-144.27c0-10,65.21-15.41,76.05-16.23c0.25-0.02,0.48-0.04,0.67-0.05c0,0,0,0,0.02,0.02
	c0.49,0.15,8.18,2.64,19.6,5.72c0.39,0.11,0.78,0.2,1.16,0.31c1.94,0.55,3.97,1.07,6.08,1.62c1.67,0.45,3.42,0.89,5.22,1.33
	c1.18,0.31,2.4,0.6,3.63,0.87c0.79,0.2,1.6,0.4,2.43,0.58c4.32,1.02,8.83,2.02,13.45,2.94
	C299.42,482.36,320.63,485.17,336.19,483.26z"/>
<path class="st14" d="M383.03,297.74c-6.5,37.37-35.94,206.57-37.51,216.27c-1.76,10.9-19.39,9.09-19.39,9.09l-8.04,0.11
	c6.93-2.22,14.19-7.2,15.09-18.28c1.11-13.79,2.29-19.39,3.01-21.66c0.42-1.31,0.69-1.49,0.69-1.49s1.87,0.75,2.82-0.4
	c0.32-0.38,0.53-0.98,0.53-1.89c0-3.42-2.73-79.73-3.23-91.62h0.02c-0.02-0.16-0.02-0.31-0.04-0.47c-0.02-0.16-0.02-0.31-0.02-0.44
	c-0.02-0.25-0.04-0.44-0.04-0.55c-1.89-27.99-5.55-52.7-12.57-57.78c0,0-3.9-8.03-23.94-10.3c-0.09-0.02-0.18-0.02-0.28-0.04
	l3.07-20.55H383.03z"/>
<path class="st8" d="M337.01,387.87c-0.02-0.16-0.02-0.33-0.02-0.47"/>
<path class="st15" d="M340.23,479.48c0,0.91-0.21,1.51-0.53,1.89c-0.92,0.16-1.87,0.29-2.82,0.4c-0.58,0.07-1.16,0.15-1.75,0.2
	c-17.15,1.89-37.07-0.29-54.97-3.63c34.45-10.38,42.17-72.01,43.79-92.32c3.47,1.73,8.04,3.02,13.05,1.85
	C337.5,399.75,340.23,476.07,340.23,479.48z"/>
<path class="st8" d="M264.43,479.48c5.69,0.73,10.84,0.31,15.5-1.07c0.09-0.02,0.16-0.05,0.25-0.07"/>
<path class="st8" d="M324.37,379.53c0,0-0.09,2.42-0.41,6.49"/>
<path class="st2" d="M317.31,381.34l-15.87,25.44c-16.69,0-26.35-8.69-31.2-15.08c-2.86-3.76-4.05-6.72-4.05-6.72l26.44-36.35
	c0,0-8.81,3.63-7.05-7.27c1.76-10.9-3.53-5.45-3.53-5.45c-5.29,9.09-26.44,10.9-24.68,1.82c1.76-9.09-3.53-7.27-3.53-7.27
	l-24.68,36.35l3.37,29.51l0.02,0.15l0.14,1.24c-0.09,0-0.18,0.02-0.26,0.02l-4.69,66.1l0.58,1.2c0.55-0.05,0.85-0.07,0.85-0.07
	s7.35,2.58,18.77,5.82c0.39,0.11,0.78,0.2,1.16,0.31c1.94,0.55,3.97,1.07,6.08,1.62c1.69,0.44,3.42,0.87,5.22,1.33
	c1.18,0.29,2.4,0.58,3.63,0.87c0.79,0.2,1.6,0.4,2.43,0.58c4.37,1,8.96,1.98,13.7,2.87c34.45-10.38,42.17-72.01,43.79-92.32
	C319.89,384,317.31,381.34,317.31,381.34z"/>
<polyline class="st8" points="227.41,468.58 227.66,465.07 227.74,463.82 "/>
<line class="st8" x1="232.54" y1="396.32" x2="232.43" y2="397.72"/>
<path class="st2" d="M127.82,640.23l-0.48,3.42c-0.11-0.22-0.25-0.42-0.42-0.6c-3.53-3.63-24.68,10.9-21.15,12.72
	c2.54,1.31,5.08,2.62,9.59,3.25c1.34,0.18,2.68,0.07,3.93-0.33c-5.45,2.54-39.51-6.23-46.06-7.96c0.88,0.15,1.73,0.02,2.57-0.42
	c3.53-1.82,3.53-12.72-1.76-19.99c0,0,10.1,0,17.24-4.05L127.82,640.23z"/>
<path class="st8" d="M93.43,624.88c-0.67,0.53-1.39,0.98-2.15,1.4"/>
<line class="st8" x1="128.69" y1="633.96" x2="127.82" y2="640.23"/>
<line class="st8" x1="127.35" y1="643.65" x2="126.93" y2="646.69"/>
<path class="st8" d="M119.36,658.68c-0.02,0.02-0.04,0.02-0.07,0.02"/>
<path class="st8" d="M73.23,650.74c-0.02,0-0.05-0.02-0.07-0.02c-0.53-0.15-0.86-0.24-0.99-0.25c-0.02-0.02-0.04-0.02-0.04-0.02"/>
<rect x="0" y="434.05" class="st16" width="273.24" height="19.99"/>
<rect x="0" y="424.96" class="st17" width="273.24" height="10.9"/>
<rect x="0" y="408.6" class="st17" width="283.82" height="10.9"/>
<rect x="0" y="414.06" class="st16" width="283.82" height="10.9"/>
<polygon class="st7" points="290.87,763 280.29,763 233.28,454.04 259.44,454.04 "/>
<polygon class="st18" points="260.9,155.98 260.9,168.71 21.15,168.71 21.15,21.5 35.26,21.5 35.26,155.98 "/>
<path class="st19" d="M127.21,201.42H91.33c-4.6-11.9-4.09-42.95-3.54-57.58c1.46,3.29,4.55,6.69,10.93,6.69c0,0,7.05,0,8.81-9.09
	c0,0,5.29,9.09,10.58,7.27c3.61-1.24,4.76-5.89,5.13-8.71C126.27,148.55,132.11,170.31,127.21,201.42z"/>
<path class="st2" d="M125.16,141.44l-1.5-0.22l-0.6-0.09c-0.05,0.25-0.09,0.51-0.16,0.76c-0.09,0.36-0.18,0.75-0.3,1.13
	c-0.05,0.22-0.12,0.44-0.21,0.65c-0.05,0.2-0.14,0.42-0.23,0.64c-0.09,0.22-0.18,0.44-0.28,0.64s-0.19,0.42-0.32,0.62
	c-0.09,0.16-0.19,0.35-0.3,0.51c-0.02,0.02-0.04,0.05-0.05,0.07c-0.09,0.16-0.19,0.31-0.32,0.45c-0.05,0.07-0.11,0.15-0.16,0.2
	c-0.09,0.13-0.19,0.25-0.3,0.36c-0.09,0.09-0.19,0.2-0.3,0.29c-0.12,0.13-0.26,0.25-0.42,0.36c-0.3,0.24-0.63,0.45-0.99,0.64
	c-0.19,0.09-0.41,0.18-0.62,0.25c-5.29,1.82-10.58-7.27-10.58-7.27c-1.76,9.09-8.81,9.09-8.81,9.09c-6.38,0-9.47-3.4-10.93-6.69
	c-1.41-3.07-1.41-6.03-1.41-6.03h1.67c0.05-1.18,0.09-1.82,0.09-1.82l5.29-5.45c0,0,12.34,12.72,24.68,0l3.53,5.45l0.02,0.04
	l0.04,0.07l1.13,1.71h0.58c0,0,0,0.33-0.04,0.85L125.16,141.44z"/>
<path class="st20" d="M93.43,205.05l-56.41-1.82c0,0,0.09-0.65,0.28-1.82c0.81-4.91,3.51-18.92,9.84-32.71
	c1.97-4.36,4.34-8.71,7.1-12.72c7.7-11.21,18.62-19.99,33.9-19.99c0,0-0.04,0.64-0.09,1.82c-0.07,1.36-0.18,3.43-0.26,6.03
	c-0.12,3.34-0.25,7.52-0.3,12.14c-0.05,4.02-0.07,8.34,0.02,12.72c0.23,12.72,1.18,25.86,3.83,32.71
	C91.93,203,92.64,204.24,93.43,205.05z"/>
<path class="st21" d="M125.16,39.67c0,0,26.44-34.53,21.15,21.81"/>
<path class="st21" d="M207.14,113.28c0,0,3.53,9.09,5.29-3.63c0,0,1.76,18.17,12.34,0c0,0,1.76,16.36,10.58,1.82
	c0,0-1.76,10.9,10.58,0"/>
<path class="st21" d="M194.8,109.64c-1.08,2.96-2.08,4.78-3,5.82c-1.82,2.07-3.3,1-4.28-0.56"/>
<path class="st8" d="M187.22,114.44c-0.6-1.05-0.99-2.18-1.15-2.69"/>
<path class="st21" d="M185.93,111.55c-2.36,4.25-4.34,5.82-5.91,6.03c-3.09,0.45-4.62-4.31-4.62-4.31
	c-1.18,1.42-2.19,2.49-3.03,3.27c-6.8,6.4-4.02-5.09-4.02-5.09c-15.87,23.63-12.34-7.27-12.34-7.27"/>
<path class="st21" d="M208.9,69.66c0,0,0,21.81,12.34,0c0,0-1.76,18.17,8.81,1.82c0,0,0,16.36,10.58,3.63"/>
<path class="st21" d="M244.16,49.67c0,0,5.29,10.9,7.05,1.82"/>
<path class="st21" d="M154.25,42.4c0,0,5.29-1.82,5.29,0c0,1.82,3.53-5.45,3.53-5.45s3.53-3.63,3.53,0c0,3.63,0,5.45,1.76,3.63"/>
<path class="st21" d="M175.4,31.49c0,0,5.29,9.09,7.05,3.63c0,0,3.53,5.45,8.81-1.82c0,0,1.76,5.45,5.29,0c0,0-1.76,5.45,3.53,0
	c0,0-5.29,5.45,3.53,1.82"/>
<path class="st21" d="M185.98,40.58c0,0,5.29,7.27,5.29,1.82s0,0,0,0s7.05,7.27,7.05,1.82c0,0,7.05,0,5.29-1.82"/>
<path class="st22" d="M200.97,137.81c0,0-1.76,3.63-3.53,3.63v3.63h-21.15v-1.82c0,0-8.81-9.09-5.29-12.72
	c2.13-2.2,2.98-1.74,3.31-1.04c-0.48-2.36-1.6-8.23-1.94-12.96c-0.19-2.64-0.14-4.89,0.39-6c1.76-3.63,1.76-18.17,5.29-16.36
	c3.46,1.78,2.03,22.55,1.97,23.39c0.07-0.51,1.64-10.58,5.08-7.03c0.32,0.33,0.6,0.67,0.83,1c0.07,0.07,0.11,0.13,0.14,0.2
	c0.65,0.95,0.99,1.87,1.15,2.69c0.05,0.33,0.07,0.64,0.09,0.91c0.05-0.16,0.12-0.31,0.21-0.45c0.48-0.93,1.34-1.49,2.87-0.71
	c0.63,0.33,1.09,0.76,1.41,1.27c1.13,1.69,0.79,4.09,0.55,5.27c0.51-1.74,1.92-5.82,3.33-2.91c1.76,3.63,1.76,9.09,1.76,9.09
	s0-5.45,1.76-3.63S204.49,126.91,200.97,137.81z"/>
<path class="st20" d="M199.2,143.26v59.97h-72.28c0.11-0.62,0.19-1.22,0.28-1.82c1.59-10.01,2.04-19.05,1.85-26.99
	c-0.04-0.96-0.07-1.91-0.11-2.85c0-0.15-0.02-0.29-0.02-0.44c-0.04-0.82-0.09-1.64-0.14-2.44h-0.02c0.02-0.04,0-0.09,0-0.15
	c-0.04-0.71-0.11-1.4-0.16-2.09c-0.02-0.25-0.04-0.51-0.07-0.76c-0.05-0.71-0.12-1.4-0.19-2.07c-0.11-1-0.23-1.98-0.35-2.93
	c-0.04-0.33-0.09-0.65-0.12-0.96c-0.18-1.31-0.37-2.56-0.58-3.76c-0.05-0.25-0.09-0.51-0.14-0.76c-0.12-0.67-0.25-1.34-0.37-1.98
	c0-0.04-0.02-0.09-0.02-0.13c-0.14-0.69-0.28-1.34-0.42-2c-0.88-4.09-1.85-7.42-2.68-9.89c-0.14-0.44-0.28-0.84-0.42-1.22
	c-0.32-0.87-0.6-1.6-0.83-2.2c-0.35-0.91-0.62-1.47-0.72-1.71l-0.04-0.07l-0.02-0.04c0,0,20.89-1.07,34.53,19.99
	c2.31,3.56,4.42,7.78,6.17,12.72c1.34,3.78,2.49,8.01,3.37,12.72c0,0,3.53,7.27,5.29-1.82c0.49-2.54,0.99-6.51,1.45-10.9
	c0.42-4.13,0.81-8.65,1.15-12.72c0.56-7.03,0.93-12.72,0.93-12.72H199.2z"/>
<polygon class="st23" points="266.19,12.41 266.19,208.69 55.7,208.69 31.94,248.67 30.24,208.69 0,208.69 0,201.42 259.09,201.42 
	259.09,21.5 0,21.5 0,12.41 "/>
<path class="st8" d="M65.23,81.47c-0.23-0.58-0.46-1.16-0.65-1.73c0.41-0.09,0.65-0.09,0.65-0.09l0.95,1.73
	C65.6,81.4,65.23,81.47,65.23,81.47z"/>
<path class="st8" d="M70.02,88.3c-1.9-1.45-3.95-2.16-4.79,0.44c0,0-1.66-4.8,2.7-4.22L70.02,88.3z"/>
<path class="st8" d="M75.8,97.83c0,0-0.04,0.29-0.05,0.84l-0.19-0.38C75.71,98.01,75.8,97.83,75.8,97.83z"/>
<path class="st8" d="M133.99,68.73c0,0.02-0.02,0.02-0.02,0.02c-0.32,0.2-0.65,0.4-0.99,0.56l-0.78-2.38
	C132.21,66.93,133.08,67.53,133.99,68.73z"/>
<path class="st8" d="M135.74,77.84l-1.59-4.89l0.69-0.04c0.37-0.02,0.72,0,1.08,0.07C136.18,74.36,136.2,75.98,135.74,77.84z"/>
<line class="st8" x1="80.76" y1="82.74" x2="74.04" y2="83.29"/>
<line class="st8" x1="109.86" y1="80.33" x2="85.25" y2="82.36"/>
<line class="st8" x1="118.11" y1="79.65" x2="116.97" y2="79.74"/>
<path class="st24" d="M134.01,63.28c0.72-0.18,13.66-3.36-0.02,5.45c0,0.02-0.02,0.02-0.02,0.02c-0.32,0.2-0.65,0.4-0.99,0.56
	c-14.3,7.54-39.56-13.29-39.56-13.29c-11.09,2.54-12.71,16.61-12.67,26.72v0.02c0.02,4.36,0.33,7.98,0.33,9.61c0,5.45-5.29,0-5.29,0
	c-1.41-10.14-7.3-11.05-9.63-11c-0.58,0.02-0.95,0.09-0.95,0.09c-0.23-0.58-0.46-1.16-0.65-1.73c-10.89-29.37,9.47-34.62,9.47-34.62
	c1.76-5.45,8.81-7.27,8.81-7.27c54.65-1.82,40.55,10.9,40.55,10.9c14.1-3.63,17.63,7.27,17.63,9.09
	C141.03,59.59,134.56,63.01,134.01,63.28z"/>
<path class="st2" d="M125.16,106.91c-3.53,3.63-8.81,7.27-12.34,5.45s-8.81-5.45-8.81-5.45s-3.53-3.63,1.76-3.63s19.39,0,19.39,0
	S128.69,103.28,125.16,106.91z"/>
<path class="st22" d="M135.74,97.83V94.7l-13.2,0.78c-0.95,0.05-1.85-0.18-2.61-0.67c-1.32-0.76-2.24-2.2-2.34-3.87l-0.62-11.05
	v-0.15l-0.05-0.95c-0.14-2.64,1.83-4.94,4.41-5.09l12.83-0.76l0.69-0.04c0.37-0.02,0.72,0,1.08,0.07c-0.35-1.84-1.15-3.25-1.92-4.25
	c0,0.02-0.02,0.02-0.02,0.02c-0.32,0.2-0.65,0.4-0.99,0.56c-14.3,7.54-39.56-13.29-39.56-13.29c-11.09,2.54-12.71,16.61-12.67,26.72
	v0.02c0.02,4.36,0.33,7.98,0.33,9.61c0,5.45-5.29,0-5.29,0c-1.41-10.14-7.3-11.05-9.63-11c-0.58,0.02-0.95,0.09-0.95,0.09
	c-0.23-0.58-0.46-1.16-0.65-1.73c-1.89,0.33-6.96,2.38-1.11,14.45c6.17,12.7,10.98,5.98,12.09,4.09c0.16-0.27,0.25-0.45,0.25-0.45
	s-0.04,0.29-0.05,0.84c-0.04,2.27,0.26,8.85,5.02,14.85c1.55,1.98,3.61,3.91,6.33,5.6c1.36,0.85,2.87,1.65,4.57,2.34
	c0,0,3.53,0,1.76,9.09c0,0,12.34,12.72,24.68,0l-1.76-5.45c0,0,2.45-0.38,5.64-1.74C128.53,120.56,138.12,113.71,135.74,97.83z
	 M73.95,92.27c-0.05-0.07-0.12-0.16-0.21-0.27c-0.02,0-0.02-0.02-0.04-0.04c-0.09-0.11-0.19-0.22-0.3-0.36
	c-0.18-0.2-0.37-0.42-0.58-0.65c-0.37-0.4-0.81-0.87-1.29-1.33c-0.48-0.45-0.99-0.91-1.52-1.31c-1.9-1.45-3.95-2.16-4.79,0.44
	c0,0-1.66-4.8,2.7-4.22c0.26,0.04,0.51,0.09,0.76,0.18c0.02,0,0.02,0,0.02,0c0.23,0.07,0.44,0.18,0.65,0.27
	c0.04,0.02,0.05,0.04,0.09,0.05c0.19,0.11,0.39,0.24,0.56,0.36c1.45,1.05,2.45,2.82,3.1,4.31c0.05,0.13,0.11,0.24,0.14,0.35
	c0.48,1.16,0.74,2.09,0.78,2.29L73.95,92.27z M85.2,81.58c-0.14-2.65,1.85-4.94,4.41-5.09l15.3-0.91c2.57-0.15,4.79,1.89,4.94,4.54
	l0.02,0.2v0.13l0.62,10.9c0.14,2.65-1.85,4.94-4.41,5.09l-15.3,0.91c-2.57,0.15-4.79-1.89-4.94-4.54L85.25,82.4v-0.04L85.2,81.58z
	 M125.16,106.91c-3.53,3.63-8.81,7.27-12.34,5.45s-8.81-5.45-8.81-5.45s-3.53-3.63,1.76-3.63s19.39,0,19.39,0
	S128.69,103.28,125.16,106.91z"/>
<line class="st8" x1="135.74" y1="94.7" x2="135.74" y2="92.37"/>
<line class="st8" x1="135.74" y1="99.64" x2="135.74" y2="97.83"/>
<path class="st25" d="M74.02,92.34l-0.07-0.07c-0.05-0.07-0.12-0.16-0.21-0.27c-0.02,0-0.02-0.02-0.04-0.04
	c-0.09-0.11-0.19-0.22-0.3-0.36c-0.18-0.2-0.37-0.42-0.58-0.65c-0.37-0.4-0.81-0.87-1.29-1.33c-0.48-0.45-0.99-0.91-1.52-1.31
	c-1.9-1.45-3.95-2.16-4.79,0.44c0,0-1.66-4.8,2.7-4.22c0.26,0.04,0.51,0.09,0.76,0.18c0.02,0,0.02,0,0.02,0
	c0.23,0.07,0.44,0.18,0.65,0.27c0.04,0.02,0.05,0.04,0.09,0.05c0.19,0.11,0.39,0.24,0.56,0.36c1.45,1.05,2.45,2.82,3.1,4.31
	c0.05,0.13,0.11,0.24,0.14,0.35C73.72,91.21,73.99,92.14,74.02,92.34z"/>
<line class="st26" x1="119.87" y1="79.65" x2="74.04" y2="83.29"/>
<path class="st27" d="M110.48,91.36c0.14,2.65-1.85,4.94-4.41,5.09l-15.3,0.91c-2.57,0.15-4.79-1.89-4.94-4.54l-0.58-10.45
	l-0.05-0.78c-0.14-2.65,1.85-4.94,4.41-5.09l15.3-0.91c2.57-0.15,4.79,1.89,4.94,4.54l0.02,0.2L110.48,91.36z"/>
<path class="st27" d="M140.46,89.59c0.14,2.64-1.83,4.94-4.41,5.09l-0.32,0.02l-13.2,0.78c-0.95,0.05-1.85-0.18-2.61-0.67
	c-1.32-0.76-2.24-2.2-2.34-3.87l-0.62-11.05v-0.15l-0.05-0.95c-0.14-2.64,1.83-4.94,4.41-5.09l12.83-0.76l0.69-0.04
	c0.37-0.02,0.72,0,1.08,0.07c2.08,0.38,3.74,2.2,3.88,4.47l0.44,7.92L140.46,89.59z"/>
<path class="st21" d="M181.57,65.11l1.27,1.16c3.9,5.9,11.27,14.17,11.95,10.65c1.76-9.09,1.76-12.72,3.53-18.17
	c3.55-10.97,34.38,2.8,41.43-0.91c0.36-0.19,1.6-0.9,2.56-0.39c1.57,0.83,1.43,4.42,0.97,7.66"/>
<ellipse class="st28" cx="7.93" cy="182.34" rx="7.93" ry="8.18"/>
<path class="st8" d="M222.81,254.42c0.63,0.02,1.08-0.29,1.08-0.29"/>
<path class="st29" d="M289.99,327.73c-3.53,9.09-28.21,10.9-26.44,3.63c0.72-2.96,0.56-7.42,0.12-11.67
	c14.86-6.14,19.92-16.25,21.38-20.25c1.13-0.95,2.2-1.94,3.26-2.96L289.99,327.73z"/>
<path class="st30" d="M285.05,299.45c-1.46,4-6.52,14.1-21.38,20.25c-0.37-3.51-0.92-6.89-1.34-9.14
	C271.81,308.45,278.99,304.54,285.05,299.45z"/>
<path class="st31" d="M315.55,266.85c-1.76,12.72-15.87,16.36-15.87,16.36c-3.63,4.82-7.28,9.32-11.37,13.29
	c-1.06,1.02-2.13,2.02-3.26,2.96c-6.06,5.09-13.24,9-22.72,11.1c-5.06,1.13-10.75,1.73-17.29,1.73c-21.26,0-23.01-36.6-22.23-57.87
	c0.33-8.71,1.08-14.83,1.08-14.83c33.49,1.82,40.55-19.99,40.55-19.99c1.76,18.17,24.68,27.26,24.68,27.26s-1.76,9.09-1.76,16.36
	s5.29,7.27,5.29,7.27s5.29-10.9,8.81-14.54c2.29-2.36,8.32-2.42,11.76,1.33C315.06,259.29,316.17,262.39,315.55,266.85z"/>
<path class="st32" d="M313.21,257.27c-3.44-3.74-9.47-3.69-11.76-1.33c-3.53,3.63-8.81,14.54-8.81,14.54s-5.29,0-5.29-7.27
	s1.76-16.36,1.76-16.36s-22.92-9.09-24.68-27.26c0,0-7.05,21.81-40.55,19.99c0,0-0.74,6.12-1.08,14.83
	c-1.55-0.04-4.21-1.94-4.21-14.83c0,0-5.29-9.09,1.76-16.36c7.03-7.25,24.57-25.33,54.37-23.64c1.71,2.44,3.19,6.22-6.77,3.65
	c-14.1-3.63-8.81,3.63-8.81,3.63s3.53,0,3.53,3.63s-10.58,5.45-17.63,7.27c-7.05,1.82,0,18.17,8.81,7.27
	c7.44-9.21,28.72-19.72,35.15-22.77c0.58,0.2,1.16,0.4,1.73,0.65c-10.21,4.78-22.78,14.85-22.78,14.85
	c-1.76,9.09,8.81,14.54,12.34,12.72c3.53-1.82,0-7.27,1.76-10.9c1.76-3.63,8.81,5.45,14.1,5.45s0-12.72,0-12.72
	c5.27,1.82,7.92,1.36,9.24,0.47c5.01,5.42,6.63,10.43,6.63,10.43S318.21,229.61,313.21,257.27z"/>
<path class="st33" d="M296.16,212.32c0,0,5.29,12.72,0,12.72s-12.34-9.09-14.1-5.45c-1.76,3.63,1.76,9.09-1.76,10.9
	c-3.53,1.82-14.1-3.63-12.34-12.72c0,0,12.57-10.07,22.78-14.85c6.68,2.58,11.41,6.31,14.67,9.87
	C304.07,213.69,301.43,214.14,296.16,212.32z"/>
<path class="st33" d="M289,202.27c-6.43,3.05-27.71,13.56-35.15,22.77c-8.81,10.9-15.87-5.45-8.81-7.27
	c7.05-1.82,17.63-3.63,17.63-7.27s-3.53-3.63-3.53-3.63s-5.29-7.27,8.81-3.63c9.96,2.56,8.48-1.22,6.77-3.65
	c0.09,0,0.19,0.02,0.28,0.02C280.38,199.93,285.02,200.89,289,202.27z"/>
<path class="st34" d="M226.81,258.87c-0.41,0.25-0.89-0.18-0.72-0.63c1.15-3.12,4.53-10.26,10.13-5.93c0,0,1.76,1.82,0,1.82
	C234.86,254.12,229.27,257.39,226.81,258.87z"/>
<ellipse class="st35" cx="232.7" cy="274.12" rx="3.53" ry="5.45"/>
<ellipse class="st35" cx="264.43" cy="270.48" rx="3.53" ry="5.45"/>
<ellipse transform="matrix(0.6 -0.8 0.8 0.6 -116.0993 337.0395)" class="st36" cx="279.01" cy="284.63" rx="14.9" ry="10.17"/>
<ellipse transform="matrix(0.9388 -0.3445 0.3445 0.9388 -86.5085 97.7605)" class="st36" cx="231.82" cy="292.29" rx="4.42" ry="12.67"/>
<path class="st37" d="M241.51,265.03c0,0,5.29,7.27-1.76,14.54c0,0,0,3.63,5.29,5.45"/>
<path class="st37" d="M244.16,289.56c0,0,10.58,3.63,19.39-7.27"/>
<path class="st34" d="M267.45,249.83c-5.93-6.09-10.07-2.26-11.81,0.11c-0.44,0.6-0.01,1.46,0.72,1.46h10.45
	C267.6,251.4,268.01,250.4,267.45,249.83z"/>
<path class="st37" d="M298.8,275.02c0,0,0-18.17,10.58-14.54"/>
<path class="st37" d="M304.09,273.21c0,0,7.05-9.09,1.76-7.27"/>
<path class="st38" d="M76.98,314.05c-2.9-7.65-10.04-12.68-17.99-12.68H0v95.02c63.56-3.74,75.62-55.3,77.7-80.49L76.98,314.05z
	 M38.76,349.65c-0.38,0.39-0.6,0.93-0.6,1.49v14.57l-3.33-2.95l-0.02-0.02l-7.23-6.42l-0.02-0.02c-0.63-0.53-1.49-0.65-2.22-0.26
	l-1.03,0.53c0.75,1.06,1.43,2.21,2.01,3.47c4.15,8.82,2.16,18.65-4.43,21.96c-6.6,3.29-15.3-1.17-19.43-9.99
	c-4.15-8.82-2.16-18.65,4.43-21.96c2.01-1,4.2-1.29,6.39-0.94v-5.01c0-0.43-0.13-0.82-0.35-1.18c-0.02-0.03-0.03-0.05-0.05-0.09
	l-7.12-9.8l-2.44-3.36h15.41c0.73,0,1.39-0.41,1.76-1.06l4.06-7.34l1.99-3.6l1.63,3.79l4.7,10.91c0.2,0.48,0.56,0.86,1.03,1.06
	l11.51,5.3l2.7,1.24L38.76,349.65z"/>
<path class="st38" d="M28.17,321.46c-0.68-1.58-2.79-1.68-3.62-0.19l1.99-3.6L28.17,321.46z"/>
<path class="st38" d="M38.16,361.15v4.56l-3.33-2.95C36.14,363.91,38.16,362.93,38.16,361.15z"/>
<path class="st38" d="M46.03,342.14c1.01-1.05,0.7-2.8-0.61-3.4l2.7,1.24L46.03,342.14z"/>
<path class="st38" d="M5.76,333.04l-2.44-3.36h4.06C5.71,329.68,4.75,331.65,5.76,333.04z"/>
<path class="st39" d="M108.67,397.45L77.7,315.9c-2.07,25.19-14.14,76.75-77.7,80.49v12.22h169.23v-12.01L108.67,397.45z
	 M90.42,402.6H55.58c-0.91,0-1.66-0.77-1.66-1.72c0-0.94,0.75-1.72,1.66-1.72h34.84c0.91,0,1.66,0.77,1.66,1.72
	C92.08,401.83,91.34,402.6,90.42,402.6z M98.72,403.46c-1.38,0-2.49-1.15-2.49-2.57c0-1.42,1.11-2.57,2.49-2.57
	c1.38,0,2.49,1.15,2.49,2.57C101.21,402.31,100.1,403.46,98.72,403.46z"/>
<path class="st40" d="M27.56,356.31c-0.63-0.53-1.49-0.65-2.22-0.26l1.21-0.63L27.56,356.31z"/>
<path class="st40" d="M38.76,349.65c-0.38,0.39-0.6,0.93-0.6,1.49v-0.88L38.76,349.65z"/>
<path class="st40" d="M13.27,343.4v0.7c0-0.43-0.13-0.82-0.35-1.18L13.27,343.4z"/>
<path class="st40" d="M20.49,328.61l-0.58,1.06h-1.18C19.46,329.68,20.13,329.27,20.49,328.61z"/>
<path class="st40" d="M33.9,333.44l-0.71-0.33l-0.32-0.74C33.07,332.85,33.43,333.23,33.9,333.44z"/>
<path class="st41" d="M46.03,342.14l-7.86,8.13v10.88c0,1.78-2.02,2.76-3.33,1.61l-0.02-0.02l-7.23-6.42l-0.02-0.02l-1.01-0.89
	l-1.21,0.63l-1.03,0.53l-3.09,1.6c-0.78,0.39-1.73,0.24-2.34-0.39l-5.01-5.18c-0.38-0.39-0.6-0.93-0.6-1.49v-7.7l-0.35-0.48
	c-0.02-0.03-0.03-0.05-0.05-0.09l-7.12-9.8c-1.01-1.39-0.05-3.36,1.63-3.36h12.53l0.58-1.06l4.06-7.34
	c0.83-1.49,2.94-1.39,3.62,0.19l4.7,10.91l0.32,0.74l0.71,0.33l11.51,5.3C46.72,339.34,47.04,341.09,46.03,342.14z"/>
<path class="st42" d="M21.88,382.01c-6.6,3.29-15.3-1.17-19.43-9.99c-4.15-8.82-2.16-18.65,4.43-21.96c2.01-1,4.2-1.29,6.39-0.94
	c4.03,0.6,8.1,3.29,11.03,7.46c0.75,1.06,1.43,2.21,2.01,3.47C30.46,368.87,28.47,378.7,21.88,382.01z"/>
<rect x="0" y="397.7" class="st38" width="107.53" height="10.9"/>
<ellipse class="st43" cx="98.72" cy="402.7" rx="2.49" ry="2.57"/>
<path class="st43" d="M92.08,402.7c0,0.94-0.75,1.72-1.66,1.72H55.58c-0.91,0-1.66-0.77-1.66-1.72c0-0.94,0.75-1.72,1.66-1.72h34.84
	C91.34,400.99,92.08,401.76,92.08,402.7z"/>
<path class="st44" d="M20.74,361.42c0,0-10.78-7.72-5.81,6.01c5.01,13.82-4.98,6.86-6.64,3.43"/>
<rect x="167.47" y="395.88" class="st39" width="17.63" height="12.72"/>
<path class="st45" d="M192.15,390.43c8.81-3.63,19.39-18.17,19.39-18.17s14.1,14.54,19.39,16.36c5.29,1.82-8.81,12.72-8.81,12.72
	L192.15,390.43z"/>
<path class="st46" d="M278.53,383.16c0,0-7.05,7.27-10.58,14.54c0,0-66.99-1.82-84.62-18.17c0,0-21.15-5.45-28.21,18.17h26.44v10.9
	l102.25,1.82v10.9c0,0,8.81-1.82,15.87-21.81C306.74,379.53,278.53,383.16,278.53,383.16z"/>
<path class="st47" d="M161.34,397.7c0,0,0.85-3.63,4.37-5.45"/>
<path class="st47" d="M165.71,397.7c0,0,0-5.45,3.53-5.45"/>
<path class="st47" d="M170.7,397.7c0,0-1.46-5.45,2.06-5.45"/>
<path class="st47" d="M174.22,397.7c0,0-1.46-5.45,2.06-5.45"/>
<path class="st48" d="M337.02,387.87h-0.02c-5.01,1.16-9.57-0.13-13.05-1.85c-4.07-2.02-6.65-4.67-6.65-4.67l-15.87,25.44
	c-16.69,0-26.35-8.69-31.2-15.08c-2.86-3.76-4.05-6.72-4.05-6.72l26.44-36.35c0,0-8.81,3.63-7.05-7.27
	c1.76-10.9-3.53-5.45-3.53-5.45c-5.29,9.09-26.44,10.9-24.68,1.82c1.76-9.09-3.53-7.27-3.53-7.27l-24.68,36.35
	c0,0,4.5,28.17,4.41,28.17c-22.71,1.58-30.85-22.72-30.85-22.72l21.15-29.08c24.68-30.9,31.73-21.81,37.02-23.63
	c5.29-1.82,3.53,5.45,3.53,10.9s7.05,3.63,7.05,3.63c19.39,0,17.63-16.36,17.63-16.36c4.13,0,7.79,0.2,11.04,0.56
	c0.11,0.02,0.19,0.02,0.28,0.04c20.04,2.27,23.94,10.3,23.94,10.3c7.02,5.07,10.68,29.79,12.57,57.78c0,0.11,0.02,0.29,0.04,0.55
	c0,0.13,0,0.27,0.02,0.44C337.01,387.56,337.01,387.7,337.02,387.87z"/>
<path class="st2" d="M182.97,657.84c0.35-3.74,0.12-7.49-1.99-8.47c-4.57-2.14-19.96,19.06-15.99,19.5c0.81,0.09,1.6,0.16,2.45,0.22
	c-9.66,1.18-24.66-0.02-29.46-0.45c0.63-0.04,1.25-0.22,1.85-0.58c3.42-2.04,2.77-12.87-2.91-19.79c2.2-0.84,5.64-3.09,12.92-1.58
	c8.81,1.82,5.29-9.09,5.29-9.09l24.68,1.82C179.81,639.42,184.84,644.29,182.97,657.84z"/>
<path class="st8" d="M182.46,661.35c0-0.02,0-0.02,0-0.04c0.18-1.11,0.33-2.16,0.48-3.16c0.02-0.11,0.04-0.22,0.04-0.31"/>
<path class="st8" d="M136.92,648.27c-0.19,0.05-0.35,0.13-0.48,0.16c-0.05,0.02-0.09,0.04-0.12,0.05c-0.09,0.04-0.12,0.05-0.12,0.05
	"/>
<path class="st8" d="M171,668.49c-1.06,0.25-2.26,0.45-3.56,0.6"/>
<path class="st8" d="M137.98,668.64c-0.99-0.09-1.53-0.15-1.53-0.15"/>
<path class="st10" d="M184.78,644.01l-49.32-1.97c-2.23-5.09-2.42-9.23-1.7-12.47c-0.02-0.02-0.02-0.02,0-0.02l1.93-3.87l49.71,1.98
	C192.09,637.03,184.78,644.01,184.78,644.01z"/>
</svg>
