<svg xmlns="http://www.w3.org/2000/svg" viewBox="0 0 411.16 268.71"><defs><style>.cls-1{fill:#d9dde0;}.cls-2{fill:#9e559c;}.cls-3{fill:#862e82;}.cls-4{fill:#ff9d78;}.cls-5{fill:#f3a06f;}.cls-6{fill:#f6a277;}.cls-7{fill:#0d2e4e;}.cls-8{fill:#0d2027;}.cls-10,.cls-9{fill:#b23145;}.cls-9{opacity:0.35;}.cls-11{fill:#fd9d74;}.cls-12{fill:#d6d0dc;}.cls-13{fill:#c5b5d0;}.cls-14{fill:#f15c70;}.cls-15{fill:#913a96;}.cls-16{fill:#0fa1c7;}.cls-16,.cls-17,.cls-18{stroke:#319dbb;}.cls-16,.cls-17,.cls-18,.cls-23{stroke-miterlimit:10;}.cls-17,.cls-20{fill:#3dc8e7;}.cls-18{fill:#39c9e2;}.cls-19{opacity:0.3;}.cls-21{fill:#10a1d4;}.cls-22{fill:#ad4291;}.cls-23{fill:none;stroke:#4db3da;stroke-width:5px;}.cls-24{fill:#4db3da;}.cls-25{fill:#d0d0e3;}.cls-26{fill:#ed5c73;}.cls-27{fill:#fac53b;}.cls-28{fill:#ad93a9;}.cls-29{fill:#fff5ff;}.cls-30{fill:#e7e4a9;}.cls-31{fill:#b53e52;}.cls-32{fill:#e7b037;}.cls-33{fill:#b5d3d1;}.cls-34{fill:#8ea8a5;}</style></defs><title>авыа</title><g id="Слой_2" data-name="Слой 2"><g id="Слой_1-2" data-name="Слой 1"><ellipse class="cls-1" cx="187.5" cy="260.21" rx="187.5" ry="8.5"/><path class="cls-2" d="M170.67,158.18s45.72,18.87,47,31.12-1,21.5,22.75,26.75h2.25V262.3s-92.08,8.83-117.29-40.46c0,0-5.21-29.1,27.54-48.7C152.89,173.14,171.21,172.07,170.67,158.18Z"/><path class="cls-3" d="M151.41,175s20.51.57,28.13-12.65l-9.43-4.18L149.68,175Z"/><path class="cls-3" d="M138.53,221.35l7.5-13.67s3.67-5.83,4,0-5.75,15.17-5.75,15.17H137.7Z"/><path class="cls-3" d="M184.37,234.51s7.83-4.17,7.5-10.67-.33-15.35,2.67-18.76,3.17,17.76,3.17,17.76v8.67L184.37,236S182.91,235.43,184.37,234.51Z"/><path class="cls-3" d="M221.37,210.51s2,15.58,0,27.21A13.93,13.93,0,0,1,210,249.22c-3.88.62-8,1.95-7.93,4.79.17,5.33-7,8.26-17,4.46l-20.33-5.31a27.89,27.89,0,0,1,15.82-3.65C189.2,250.35,219.37,245.68,221.37,210.51Z"/><path class="cls-4" d="M155.28,245.86a1.57,1.57,0,0,0-1.16-.71c-2.27-.23-9-1.41-9.34-7.36-.31-5.3-.16-11.5-.06-14.38a1.57,1.57,0,0,0-1.57-1.62H126.7a1.57,1.57,0,0,0-1.5,1.09c-1,3-3.37,12.38-1.35,27.91,2.3,17.72,62.59,6.77,72.13,4.92a1.56,1.56,0,0,0,1.27-1.54h0a3.47,3.47,0,0,0-3.39-3.48c-7.48-.16-25-.18-28.59,3.09s-3.83,2.53-3.82,2a1.45,1.45,0,0,0-.26-.81Z"/><path class="cls-5" d="M199.26,225.07h0c.14,3.26-1,7.53-6.2,8.31-8,1.19-39.06,12.86-42.3,16.36,0,0-26.23,1.17-27,3.46s17,6.93,28.74,3.21l11-.5s6.83-5.5,20.92-5.25,38.58-3.42,34.42-25.92Z"/><path class="cls-4" d="M202.53,253.3c.3,2.48-5.34,1.51-11.39,2.25s-10.22,2.91-10.53.43,4.36-5.1,10.41-5.84S202.22,250.81,202.53,253.3Z"/><path class="cls-6" d="M171.09,157.82l-3-6.55a3.5,3.5,0,0,0-1.5-1.55c-.83-.47-2-1.68-2.65-4.8a12.38,12.38,0,0,0-2-4.76,4.8,4.8,0,0,1-.45-4.81c1.13-2.4,2-6-.81-9a4.61,4.61,0,0,0-2-1.25c-1.27-.4-3.35-.76-4.91.47a4.87,4.87,0,0,1-6.93-1.31l0,0a2.27,2.27,0,0,0-3.23-.52c-1.75,1.27-4.94,2.57-10,1.16a4.14,4.14,0,0,0-.57-.12c-1.66-.22-9.92-1.14-12.2,1.63a2.68,2.68,0,0,1-.61.58c-1.12.72-4.52,3.12-5.08,6.24,0,0-4.68,18.16,9.59,28.18l10.2,4.5a4.79,4.79,0,0,0,2.88,1h9.38a4.89,4.89,0,0,1,4.63,3.68c.49,1.68,2.15,3,6.82,1.76,6.44-1.76,10.38-6.94,12.21-10A4.78,4.78,0,0,0,171.09,157.82Z"/><path class="cls-7" d="M166.36,150.47s-1.31-9.84,3-15.74,2.79-18.53-7.71-20-9-2.46-11.64-7.05c0,0-5.08-14.76-25.74-15.25,0,0-20.5.16-26.89,18.69,0,0-2.95,16.42-9.49,19.66a13.24,13.24,0,0,0-4.08,2.95c-5.35,6-16.6,22.42-1.88,42.83a26.19,26.19,0,0,1,5.09,18,16.67,16.67,0,0,1-1.74,6.26A22.29,22.29,0,0,0,82.56,208c-1.37,8.66-.89,25.47,20.72,33.43a24.27,24.27,0,0,1,8.68,5.41l6.35,6.25h0a9.61,9.61,0,0,0,5.3-9.65c-.38-3.63-.12-9.46,1.82-18.8a15,15,0,0,0,.24-4.8c-.79-6.63-1-27.79,24.47-46.89a3.53,3.53,0,0,0,1.41-3.19h0a3.17,3.17,0,0,0-3.18-2.84l-3.55,0a30.11,30.11,0,0,1-22.7-9.76c-4.52-5-8-12.45-7.09-23.15,0,0,0-.1.06-.28a9.75,9.75,0,0,1,9.54-7.59h18.6l1.48-3.28,6.07,8.69s-1.31-8.36,8-4.76c0,0,4.86,1.58,2.45,9.14a12.56,12.56,0,0,0,.43,9l2.61,5.76S165.78,152.19,166.36,150.47Z"/><path class="cls-8" d="M164.3,150.64s2.36-7.7-.95-10.07S164.6,134,164.6,134s1.81-7.12-4.62-11.25c0,0-7.17-2-10.51.28a.14.14,0,0,1-.12,0c-.62-.14-5.86-1.25-8.19-.65a109.53,109.53,0,0,1-12.94,1.44c-5.67,0-9.66,1.05-12.81,3.4,0,0-5.06,6.81-2.06,21.44,0,0,.75,9,13.63,23.92,0,0,3.75,12.45-2.63,11.58,0,0-12.75-.75-14.12,10.87,0,0,9,18.62,2,26.13,0,0-4.22,12.32,6.12,31.84,1.85-.84,7.14-4.57,5.2-15.67.53-.56.24-6.41,2.22-16,0,0-6.78-21.25,27.33-49.1.17-.14-.82-.91-.94-1.09-1.36-2.18,1-4.41-6.18-4.31,0,0-18.62.82-26.93-13.87,0,0-8.2-12.63-1-24.35.05-.07,2.31-3.07,11-2.55h13.29a1.49,1.49,0,0,0,1.36-.88l1.08-2.4h0l6.07,8.69s-1.06-7.79,7.06-5.1c2,.67,1,.34,1,.34s4.79,2.28,2.45,9.14C161.25,135.84,158.43,140.31,164.3,150.64Z"/><path class="cls-9" d="M343.62,214.38s4.52,16.51.36,30.4l4-3.59-2.06-29.41Z"/><line class="cls-10" x1="306.68" y1="228.28" x2="317.12" y2="228.28"/><path class="cls-9" d="M305.4,226.7s9.45,1.4,12.24-.31,3.73,10.35,3.73,10.35S306.42,230.78,305.4,226.7Z"/><path class="cls-11" d="M318.3,152.06S310,142,317,134.85s12.83-8.33,15-17.33c0,0,4.31-5.9,8.81-2.63a6.75,6.75,0,0,1,2.53,6.75c-.82,4.27-3.67,12.42-13.35,22.87l-.33,7.54Z"/><path class="cls-11" d="M376.29,177.36s-2.31-9,3.69-10.52,12.5-2.33,19.33-7.17,10.67,0,10.67,0,4.83,5.67-5,8.5c0,0-15,5.26-19,14.54"/><path class="cls-12" d="M257.05,209.18l6.5-39.05V158.18H253.8V146.93l62,1.07,2.51,4.05-.89,6.12h-3.1l1.88,9.85s-5.71,47.32,1.45,58.36l-3.33.79-5.75-60.58H271.64l-4.19,43.51s-8.15-.24-11.19.4S257.05,209.18,257.05,209.18Z"/><rect class="cls-13" x="263.37" y="157.41" width="54.38" height="3.73"/><polygon class="cls-13" points="271.28 170.01 263.56 170.01 263.56 166.53 271.64 166.6 271.28 170.01"/><polygon class="cls-13" points="316.63 169.9 308.93 169.9 308.56 166.6 315.89 166.49 316.63 169.9"/><path class="cls-14" d="M242.64,214.92v46.25h69s28.67.88,32.33-16.45c0,0,25-20,42-62,0,0-5-11-11.67-3.67l-30.67,35.33s-4,1.33-3.33-14.33c0,0-5.67-33.67-10.67-48H318.3s-9,55.67-.67,74.33c0,0-12.33,4.37-31-7.15C286.64,219.24,271.64,201.45,242.64,214.92Z"/><polygon class="cls-15" points="305.98 132.26 272.76 132.26 272.31 130.03 306.3 130.03 305.98 132.26"/><path class="cls-16" d="M293.05,96.6l-1.94,27.35c-2,1.12-5.38-3.38-5.38-3.38s-2.25-10.5-11-12.5-2.75-11-2.75-11,6.25-7.75-8.75-12.75c0,0-1.92-8.25,4.91-7.5,0,0,8.84,2,10.59-2.5,0,0,4.5-3.5,7,4.25C285.73,78.57,291.48,81.79,293.05,96.6Z"/><path class="cls-17" d="M314,94.07s6.41,7.5-4.17,14.75c0,0-16.58,3.75-17.33,11.75a6.22,6.22,0,0,1-.76,2.78,1.83,1.83,0,0,1-.61.6l1.94-27.35c.07.64.13,1.29.18,2l.23-.46C295.07,95,305,76.81,318,79.32,318,79.32,320,86.32,314,94.07Z"/><path class="cls-18" d="M237,110.35"/><g class="cls-19"><path class="cls-20" d="M281,90.64a33.89,33.89,0,0,1,4.53,7.46,54.65,54.65,0,0,1,3,8.23,61.82,61.82,0,0,1,1.67,8.59c.2,1.44.27,2.9.4,4.35s.08,2.91.07,4.36c-.38-2.89-.71-5.76-1.23-8.6-.28-1.42-.51-2.84-.85-4.24s-.67-2.8-1-4.2a81.49,81.49,0,0,0-2.73-8.19c-.53-1.34-1.1-2.67-1.75-4A36.25,36.25,0,0,0,281,90.64Z"/></g><g class="cls-19"><path class="cls-21" d="M307.92,94.4q-1.54,1.51-2.93,3.15c-.93,1.09-1.84,2.19-2.68,3.35a75.56,75.56,0,0,0-4.72,7.13c-.7,1.24-1.42,2.47-2,3.76l-1,1.91-.89,1.95c-1.2,2.6-2.17,5.29-3.18,8,.32-1.4.65-2.81,1.05-4.19s.86-2.76,1.42-4.09a53.69,53.69,0,0,1,3.75-7.82,51.68,51.68,0,0,1,5-7.1A36.55,36.55,0,0,1,307.92,94.4Z"/></g><polygon class="cls-22" points="268.47 121.37 268.47 130.03 272.31 130.03 276.05 147.85 303.72 147.85 306.3 130.03 310.14 130.03 310.14 121.37 268.47 121.37"/><path class="cls-23" d="M29,201.18V37.82a29.38,29.38,0,0,1,4.38-15.47C38.66,13.77,49.19,2.09,67,2.51c0,0,32-1.33,35.33,22"/><rect class="cls-24" x="80.05" y="23.93" width="53" height="35.25"/><rect class="cls-25" x="144.3" y="77.65" width="113" height="6.5"/><rect class="cls-26" x="158.28" y="28.37" width="13.7" height="48.72"/><rect class="cls-27" x="187.5" y="24.08" width="13.3" height="53.57"/><path class="cls-28" d="M210,51.8H254.3a4.88,4.88,0,0,1,4.88,4.88v3a4.88,4.88,0,0,1-4.88,4.88H210a0,0,0,0,1,0,0V51.8A0,0,0,0,1,210,51.8Z"/><path class="cls-29" d="M210,54.51h41.35a3.56,3.56,0,0,1,3.56,3.56v.33A3.56,3.56,0,0,1,251.36,62H210a0,0,0,0,1,0,0V54.51A0,0,0,0,1,210,54.51Z"/><path class="cls-30" d="M204.64,64.92h44.28a4.88,4.88,0,0,1,4.88,4.88v3a4.88,4.88,0,0,1-4.88,4.88H204.64a0,0,0,0,1,0,0V64.92A0,0,0,0,1,204.64,64.92Z" transform="translate(458.44 142.57) rotate(180)"/><path class="cls-29" d="M208.89,67.63h41.35a3.56,3.56,0,0,1,3.56,3.56v.33a3.56,3.56,0,0,1-3.56,3.56H208.89a0,0,0,0,1,0,0V67.63a0,0,0,0,1,0,0Z" transform="translate(462.69 142.73) rotate(180)"/><rect class="cls-31" x="160.69" y="34.2" width="9.73" height="19.61"/><rect class="cls-31" x="163.69" y="72.31" width="2.88" height="2"/><polygon class="cls-26" points="187.5 77.65 176.18 77.65 171.53 28.93 182.93 27.81 187.5 77.65"/><polygon class="cls-31" points="182.56 53.55 177.43 54.06 175.35 34.62 180.38 34.01 182.56 53.55"/><rect class="cls-31" x="179.52" y="68.18" width="2.38" height="4.13"/><rect class="cls-32" x="187.5" y="32.34" width="13.3" height="2.3"/><rect class="cls-32" x="187.5" y="35.26" width="13.3" height="2.3"/><rect class="cls-32" x="187.5" y="38.17" width="13.3" height="2.3"/><polygon class="cls-33" points="14.55 201.2 25.55 260.2 118.05 260.2 107.05 201.2 14.55 201.2"/><path class="cls-34" d="M22.5,243.81l3.06,16.39h92.54l-1-5-.6-3.15S38.09,260.31,22.5,243.81Z"/><polygon class="cls-34" points="144.38 255.36 145.22 260.2 118.09 260.2 117.13 255.15 144.38 255.36"/></g></g></svg>